<svg width="272" height="225" viewBox="0 0 272 225" fill="none" xmlns="http://www.w3.org/2000/svg">
<g filter="url(#filter0_d_0_3119)">
<path d="M112.112 104.521C113.526 104.77 113.984 105.415 113.984 106.33C113.984 107.058 113.672 108.202 112.986 109.305C112.653 109.263 112.299 109.242 111.987 109.242C111.634 109.242 111.342 109.263 111.114 109.305C111.426 108.14 111.758 106.622 112.112 104.521ZM109.72 104.542C109.304 107.329 108.306 111.01 107.266 113.215C105.643 113.361 104.915 113.569 104.915 114.359C104.915 115.649 105.747 116.46 106.267 116.46C106.766 116.46 107.203 116.169 108.077 115.462C110.136 116.814 111.426 117.209 112.882 117.209C115.898 117.209 117.354 115.607 117.354 113.402C117.354 112.487 116.875 110.948 114.816 109.866C116.397 108.327 117.312 106.601 117.312 105.27C117.312 102.898 115.606 101.234 111.53 101.234C107.058 101.234 104 103.439 104 105.769C104 106.518 104.333 106.996 104.894 106.996C105.061 106.996 105.248 106.954 105.373 106.892C106.142 105.353 107.91 104.77 109.72 104.542ZM113.381 114.754C112.59 114.754 110.947 114.234 109.304 113.673C109.949 112.758 110.386 111.78 110.677 110.761C113.402 111.926 114.317 112.799 114.317 113.881C114.317 114.422 113.901 114.754 113.381 114.754ZM133.524 107.703C133.129 107.703 132.796 107.828 132.505 108.182C132.484 107.786 132.193 107.308 131.527 107.308C130.82 107.308 129.884 107.807 128.699 108.743C128.054 108.847 126.993 108.993 126.223 109.097C126.223 107.974 125.828 107.495 125.121 107.495C124.684 107.495 124.268 107.703 123.935 108.182C123.915 107.516 123.291 107.266 122.771 107.266C120.566 107.266 118.319 110.345 118.319 113.798C118.319 115.836 119.484 116.814 120.961 116.814C123.561 116.814 125.371 113.569 125.932 110.927C125.932 110.927 126.639 110.865 127.471 110.782C127.097 111.697 126.889 112.737 126.889 113.798C126.889 115.836 128.054 116.814 129.531 116.814C130.987 116.814 132.089 116.065 133.087 114.713C133.316 114.858 133.545 114.921 133.919 114.921C135.687 114.921 137.081 112.966 137.081 112.092C137.081 111.655 136.644 111.343 136.27 111.343C135.583 112.446 134.98 112.924 134.377 112.924C134.169 112.924 134.023 112.841 133.961 112.778C134.419 111.634 134.793 110.095 134.793 109.097C134.793 108.286 134.377 107.703 133.524 107.703ZM121.273 113.174C121.273 111.551 122.313 109.346 123.54 108.806C123.291 109.201 123.207 109.596 123.207 109.929C123.207 110.428 123.415 110.823 123.707 110.927C123.436 112.674 122.771 114.442 122.001 114.442C121.668 114.442 121.273 114.151 121.273 113.174ZM129.843 113.028C129.843 112.113 130.092 110.927 130.571 110.137C131.111 109.929 131.673 109.575 131.985 109.159C131.694 109.887 131.465 110.927 131.465 111.572C131.465 112.217 131.569 113.007 131.798 113.486C131.507 113.943 131.091 114.338 130.591 114.338C130.217 114.338 129.843 114.047 129.843 113.028ZM136.129 112.321C135.609 113.215 135.442 113.964 135.442 114.609C135.463 115.69 136.358 116.793 137.564 116.793C138.042 116.793 138.438 116.647 138.666 116.398C138.687 114.63 138.729 113.735 138.812 112.799L139.748 112.425C139.686 112.882 139.644 113.423 139.644 113.943C139.644 116.273 140.164 117.167 141.495 117.167C143.409 117.167 146.612 113.278 146.612 112.071C146.612 111.655 146.196 111.426 145.801 111.426C144.345 113.527 143.513 114.422 142.972 114.422C142.473 114.422 142.265 113.652 142.265 111.406C144.407 110.345 144.657 110.137 144.657 109.18C144.657 108.39 144.178 107.558 143.159 107.558C142.598 107.558 141.994 107.974 141.058 109.263C140.788 109.638 140.538 110.095 140.33 110.532L138.937 111.114C139.062 110.22 139.519 108.868 139.977 107.953C141.495 104.999 141.953 103.834 141.953 102.919C141.953 101.858 141.391 101.442 140.497 101.442C137.897 101.442 137.002 104.542 136.129 112.321ZM145.778 110.657C145.611 111.53 144.946 113.943 144.946 115.337C144.946 116.418 145.382 116.938 146.589 116.938C148.69 116.938 152.059 113.673 152.059 112.092C152.059 111.676 151.664 111.385 151.269 111.385C150.187 113.07 148.96 114.255 148.315 114.255C148.128 114.255 148.024 114.172 148.024 113.943C148.024 113.423 149.002 109.804 149.563 107.786C151.123 104.854 151.539 103.834 151.539 102.919C151.539 101.858 150.978 101.442 150.083 101.442C148.44 101.442 146.963 103.127 146.589 105.935C146.402 107.35 146.027 109.305 145.778 110.657ZM154.904 109.866C154.904 110.49 154.654 111.135 153.49 111.343C153.635 109.887 154.197 109.18 154.488 109.18C154.738 109.18 154.904 109.43 154.904 109.866ZM153.406 116.855C156.11 116.855 159.584 113.548 159.584 112.009C159.584 111.676 159.293 111.343 158.794 111.322C157.608 113.132 155.778 114.338 154.363 114.338C153.552 114.338 153.365 113.818 153.365 112.882C156.214 112.238 157.234 110.886 157.234 109.138C157.234 107.682 156.443 106.996 155.008 106.996C152.99 106.996 150.432 110.199 150.432 113.34C150.432 115.586 151.368 116.855 153.406 116.855ZM163.19 108.722C162.837 108.618 162.441 108.473 162.213 108.348C162.483 107.89 162.92 107.578 163.419 107.308C163.461 107.183 163.481 107.038 163.481 106.892C163.481 106.33 163.003 105.998 162.296 105.998C161.131 105.998 158.947 108.057 158.947 109.513C158.947 109.908 159.093 110.178 159.259 110.366C158.905 111.218 158.51 111.738 157.969 112.508C157.865 112.654 157.824 112.841 157.824 113.007C157.824 113.444 158.136 113.818 158.656 113.818C159.342 113.049 159.821 112.321 160.465 111.094C160.923 111.281 161.152 111.406 161.152 111.655C161.152 112.196 160.133 113.964 160.133 115.337C160.133 116.522 160.84 117.084 162.109 117.084C164.022 117.084 167.579 113.382 167.579 112.071C167.579 111.759 167.225 111.426 166.705 111.426C165.603 113.153 164.147 114.442 163.565 114.442C163.294 114.442 163.211 114.234 163.211 113.943C163.211 113.423 163.627 112.404 164.105 111.447C164.438 110.782 164.667 110.282 164.667 109.866C164.667 109.367 164.417 109.076 163.19 108.722Z" fill="white"/>
<path opacity="0.1" fill-rule="evenodd" clip-rule="evenodd" d="M121.23 110.569C121.23 110.569 144.459 90.158 164.453 108.956C150.904 108.719 142.65 110.62 136.963 115.271C135.53 116.443 133.095 116.515 132.093 117.692C129.559 117.602 130.845 118.385 129.163 117.715C127.732 117.145 126.622 113.355 124.398 113.358C122.858 113.36 121.23 110.569 121.23 110.569Z" fill="#FCFDFE"/>
</g>
<defs>
<filter id="filter0_d_0_3119" x="0" y="0" width="271.579" height="224.989" filterUnits="userSpaceOnUse" color-interpolation-filters="sRGB">
<feFlood flood-opacity="0" result="BackgroundImageFix"/>
<feColorMatrix in="SourceAlpha" type="matrix" values="0 0 0 0 0 0 0 0 0 0 0 0 0 0 0 0 0 0 127 0" result="hardAlpha"/>
<feOffset dy="3"/>
<feGaussianBlur stdDeviation="52"/>
<feColorMatrix type="matrix" values="0 0 0 0 0.0086723 0 0 0 0 0.0778216 0 0 0 0 0.190189 0 0 0 1 0"/>
<feBlend mode="normal" in2="BackgroundImageFix" result="effect1_dropShadow_0_3119"/>
<feBlend mode="normal" in="SourceGraphic" in2="effect1_dropShadow_0_3119" result="shape"/>
</filter>
</defs>
</svg>
