<svg width="12" height="12" viewBox="0 0 12 12" fill="none" xmlns="http://www.w3.org/2000/svg">
<g clip-path="url(#clip0_0_925)">
<g clip-path="url(#clip1_0_925)">
<path fill-rule="evenodd" clip-rule="evenodd" d="M10.8 1.2C11.1314 1.2 11.4 1.46863 11.4 1.8V3.006H0.600006V1.8C0.600006 1.46863 0.868635 1.2 1.20001 1.2H3.00001V0H4.20001V1.2H7.80001V0H9.00001V1.2H10.8ZM10.8 12H1.20001C0.868635 12 0.600006 11.7314 0.600006 11.4V4.206H11.4V11.4C11.4 11.7314 11.1314 12 10.8 12ZM9.00001 6H7.80001V7.2H9.00001V6ZM7.80001 8.4H9.00001V9.6H7.80001V8.4ZM6.60001 6H5.40001V7.2H6.60001V6ZM5.40001 8.4H6.60001V9.6H5.40001V8.4ZM4.20001 6H3.00001V7.2H4.20001V6ZM3.00001 8.4H4.20001V9.6H3.00001V8.4Z" fill="#D9DBE4"/>
</g>
</g>
<defs>
<clipPath id="clip0_0_925">
<rect width="12" height="12" fill="white"/>
</clipPath>
<clipPath id="clip1_0_925">
<rect width="12" height="12" fill="white"/>
</clipPath>
</defs>
</svg>
