<svg width="18" height="248" viewBox="0 0 18 248" fill="none" xmlns="http://www.w3.org/2000/svg">
<g clip-path="url(#clip0_0_189)">
<path d="M7.2 18V10.8309H10.8V18H15.3V9.44118H18L9 0L0 9.44118H2.7V18H7.2Z" fill="white"/>
</g>
<g clip-path="url(#clip1_0_189)">
<path d="M2.62505 49.7205H15.4028C16.2849 49.7205 17 50.4866 17 51.4318V62.3841C17 63.3293 16.2849 64.0954 15.4028 64.0954H2.62505C1.74293 64.0954 1.02783 63.3293 1.02783 62.3841V51.4318C1.02783 50.4866 1.74293 49.7205 2.62505 49.7205Z" fill="white"/>
<path d="M13.79 55.6321H3.40812C2.74653 55.6321 2.21021 56.2067 2.21021 56.9156V58.0279H5.87246C6.08426 58.0279 6.28739 58.1181 6.43716 58.2785L7.23577 59.1342C7.59734 59.5216 8.08774 59.7392 8.59908 59.7392C9.11043 59.7392 9.60082 59.5216 9.9624 59.1342L10.761 58.2785C10.9108 58.1181 11.1139 58.0279 11.3257 58.0279H14.988V56.9156C14.988 56.2067 14.4516 55.6321 13.79 55.6321Z" fill="#328CFF"/>
<path d="M3.82291 48.009C3.16132 48.009 2.625 48.5837 2.625 49.2925V53.143H15.4028V49.2925C15.4028 48.5837 14.8664 48.009 14.2048 48.009H3.82291Z" fill="#328CFF"/>
<path d="M2.75513 51.4316C1.95745 51.4316 1.31079 52.0063 1.31079 52.7151V55.1965H16.7171V52.7151C16.7171 52.0063 16.0705 51.4316 15.2728 51.4316H2.75513Z" fill="white"/>
</g>
<g clip-path="url(#clip2_0_189)">
<path opacity="0.3" d="M12.396 94.3333H14.6292C15.9384 94.3333 16.9998 95.3854 16.9998 96.6833V107.65C16.9998 108.948 15.9384 110 14.6292 110H12.396V94.3333Z" fill="#328CFF"/>
<path d="M2.12346 94.3333H11.6059C12.9152 94.3333 13.9765 95.3854 13.9765 96.6833V107.65C13.9765 108.948 12.9152 110 11.6059 110H2.12346C1.68704 110 1.33325 109.649 1.33325 109.217V95.1166C1.33325 94.684 1.68704 94.3333 2.12346 94.3333Z" fill="#328CFF"/>
<path fill-rule="evenodd" clip-rule="evenodd" d="M2.12346 94.3333H12.2587C13.5679 94.3333 14.6293 95.3854 14.6293 96.6833V107.65C14.6293 108.948 13.5679 110 12.2587 110H2.12346C1.68704 110 1.33325 109.649 1.33325 109.217V95.1166C1.33325 94.684 1.68704 94.3333 2.12346 94.3333ZM7.74424 101.383C8.61708 101.383 9.32465 100.682 9.32465 99.8166C9.32465 98.9513 8.61708 98.2499 7.74424 98.2499C6.8714 98.2499 6.16383 98.9513 6.16383 99.8166C6.16383 100.682 6.8714 101.383 7.74424 101.383ZM4.26373 106.083C4.15363 106.083 3.93537 105.818 3.94464 105.691C4.1148 103.355 5.81534 102.167 7.88806 102.167C9.98995 102.167 11.7168 103.289 11.8455 105.692C11.8506 105.787 11.8455 106.083 11.5157 106.083H4.26373Z" fill="white"/>
</g>
<g clip-path="url(#clip3_0_189)">
<path d="M7.54367 146.445V145.809H2.03766L2.02979 152.643C2.02979 153.349 2.73084 153.915 3.60518 153.915H14.633C15.5073 153.915 16.2084 153.349 16.2084 152.643V145.809H10.6945V146.445H7.54367Z" fill="#328CFF"/>
<path d="M15.4207 143.314H12.9237V141.77L11.3483 140.227H6.8742L5.30668 141.77V143.314H2.82149C1.95108 143.314 1.24609 144.005 1.24609 144.858V147.836C1.24609 148.689 1.95108 149.38 2.82149 149.38H7.54768V147.836H10.6985V149.38H15.4247C16.2951 149.38 17.0001 148.689 17.0001 147.836V144.858C16.9961 144.005 16.2911 143.314 15.4207 143.314Z" fill="white"/>
<path d="M7.54367 151.585V150.813H2.03766L2.02979 154.563C2.02979 155.42 2.73084 156.107 3.60518 156.107H14.633C15.5073 156.107 16.2084 155.42 16.2084 154.563V150.813H10.6945V151.585H7.54367Z" fill="white"/>
<path d="M10.6906 143.314H7.53979V141.771H10.6906V143.314Z" fill="#328CFF"/>
</g>
<g clip-path="url(#clip4_0_189)">
<path d="M8.99984 186.667C10.3303 186.667 11.5573 186.994 12.6808 187.65C13.8044 188.306 14.694 189.195 15.3497 190.319C16.0053 191.442 16.3332 192.669 16.3332 194C16.3332 195.33 16.0053 196.557 15.3497 197.681C14.694 198.804 13.8044 199.694 12.6808 200.35C11.5573 201.005 10.3303 201.333 8.99984 201.333C7.6694 201.333 6.4424 201.005 5.31885 200.35C4.19529 199.694 3.30568 198.804 2.65001 197.681C1.99434 196.557 1.6665 195.33 1.6665 194C1.6665 192.669 1.99434 191.442 2.65001 190.319C3.30568 189.195 4.19529 188.306 5.31885 187.65C6.4424 186.994 7.6694 186.667 8.99984 186.667Z" fill="#328CFF"/>
<path fill-rule="evenodd" clip-rule="evenodd" d="M8.83325 186.333C10.1939 186.333 11.4488 186.669 12.5979 187.339C13.747 188.01 14.6568 188.92 15.3274 190.069C15.998 191.218 16.3333 192.473 16.3333 193.833C16.3333 195.194 15.998 196.449 15.3274 197.598C14.6568 198.747 13.747 199.657 12.5979 200.327C11.4488 200.998 10.1939 201.333 8.83325 201.333C7.47258 201.333 6.21769 200.998 5.0686 200.327C3.91952 199.657 3.00968 198.747 2.33911 197.598C1.66854 196.449 1.33325 195.194 1.33325 193.833C1.33325 192.473 1.66854 191.218 2.33911 190.069C3.00968 188.92 3.91952 188.01 5.0686 187.339C6.21769 186.669 7.47258 186.333 8.83325 186.333ZM11.509 191.421C11.496 191.428 11.4651 191.459 11.4163 191.514C11.3701 191.566 11.3283 191.597 11.2909 191.605C11.3023 191.601 11.3147 191.585 11.3284 191.558C11.3446 191.525 11.3609 191.49 11.3772 191.45C11.3935 191.411 11.4049 191.389 11.4114 191.382C11.4504 191.337 11.5221 191.288 11.6262 191.236C11.7174 191.197 11.8866 191.158 12.134 191.118C12.3554 191.066 12.5214 191.102 12.6321 191.226C12.6191 191.213 12.65 191.171 12.7249 191.099C12.7997 191.027 12.8469 190.988 12.8665 190.982C12.886 190.969 12.9348 190.954 13.0129 190.938C13.0911 190.922 13.1399 190.897 13.1594 190.865L13.179 190.65C13.1008 190.656 13.0439 190.633 13.0081 190.581C12.9722 190.529 12.9511 190.461 12.9446 190.376C12.9446 190.389 12.925 190.415 12.886 190.454C12.886 190.409 12.8713 190.383 12.842 190.376C12.8127 190.37 12.7753 190.373 12.7297 190.386C12.6842 190.399 12.6549 190.402 12.6418 190.396C12.5767 190.376 12.5279 190.352 12.4954 190.323C12.4628 190.293 12.4368 190.24 12.4172 190.161C12.3977 190.083 12.3847 190.034 12.3782 190.015C12.3652 189.982 12.3342 189.947 12.2854 189.908C12.2366 189.868 12.2056 189.836 12.1926 189.81C12.1861 189.797 12.178 189.779 12.1682 189.756C12.1584 189.733 12.1487 189.712 12.1389 189.693C12.1292 189.673 12.1161 189.655 12.0999 189.639C12.0836 189.623 12.0657 189.615 12.0461 189.615C12.0266 189.615 12.0038 189.631 11.9778 189.663C11.9517 189.696 11.9273 189.728 11.9045 189.761C11.8818 189.794 11.8671 189.81 11.8606 189.81C11.8411 189.797 11.8215 189.792 11.802 189.795C11.7825 189.798 11.7678 189.802 11.7581 189.805C11.7483 189.808 11.7336 189.818 11.7141 189.834C11.6946 189.851 11.6783 189.862 11.6653 189.868C11.6458 189.881 11.6181 189.891 11.5823 189.898C11.5465 189.904 11.5188 189.911 11.4993 189.917C11.5969 189.885 11.5937 189.849 11.4895 189.81C11.4244 189.784 11.3723 189.774 11.3333 189.781C11.3918 189.755 11.4163 189.715 11.4065 189.663C11.3967 189.611 11.3691 189.566 11.3235 189.527H11.3723C11.3658 189.501 11.3381 189.473 11.2893 189.444C11.2405 189.414 11.1835 189.387 11.1184 189.361C11.0533 189.335 11.011 189.315 10.9915 189.302C10.9394 189.269 10.8287 189.239 10.6594 189.209C10.4902 189.18 10.3827 189.178 10.3372 189.204C10.3046 189.243 10.29 189.278 10.2932 189.307C10.2965 189.336 10.3095 189.382 10.3323 189.444C10.3551 189.505 10.3665 189.546 10.3665 189.566C10.373 189.605 10.3551 189.647 10.3127 189.693C10.2704 189.738 10.2493 189.777 10.2493 189.81C10.2493 189.855 10.2948 189.906 10.386 189.961C10.4771 190.017 10.5097 190.087 10.4836 190.171C10.4641 190.223 10.412 190.275 10.3274 190.327C10.2428 190.38 10.1907 190.419 10.1711 190.445C10.1386 190.497 10.1337 190.557 10.1565 190.625C10.1793 190.694 10.2135 190.747 10.259 190.786C10.2721 190.799 10.2769 190.812 10.2737 190.825C10.2704 190.839 10.259 190.853 10.2395 190.869C10.22 190.886 10.2021 190.899 10.1858 190.908C10.1695 190.918 10.1484 190.93 10.1223 190.943L10.093 190.962C10.0214 190.995 9.95467 190.975 9.89282 190.904C9.83097 190.832 9.78703 190.747 9.76099 190.65C9.71541 190.487 9.66333 190.389 9.60474 190.357C9.455 190.305 9.3606 190.308 9.32153 190.367C9.28898 190.282 9.15552 190.197 8.92114 190.113C8.75838 190.054 8.56958 190.041 8.35474 190.074C8.3938 190.067 8.3938 190.018 8.35474 189.927C8.30916 189.829 8.24731 189.79 8.16919 189.81C8.18872 189.771 8.20174 189.714 8.20825 189.639C8.21476 189.564 8.21802 189.52 8.21802 189.507C8.23755 189.422 8.27661 189.348 8.33521 189.283C8.34172 189.276 8.3645 189.248 8.40356 189.2C8.44263 189.151 8.47355 189.107 8.49634 189.068C8.51912 189.029 8.52075 189.009 8.50122 189.009C8.72909 189.035 8.89185 188.999 8.9895 188.902C9.02205 188.869 9.05949 188.814 9.10181 188.736C9.14412 188.658 9.1783 188.602 9.20435 188.57C9.26294 188.531 9.30851 188.513 9.34106 188.516C9.37362 188.519 9.42082 188.537 9.48267 188.57C9.54452 188.602 9.59172 188.618 9.62427 188.618C9.71541 188.625 9.76587 188.589 9.77563 188.511C9.7854 188.433 9.76099 188.368 9.70239 188.316C9.78052 188.322 9.79028 188.267 9.73169 188.15C9.70565 188.104 9.67961 188.075 9.65356 188.062C9.57544 188.036 9.48755 188.052 9.38989 188.111C9.33833 188.136 9.3442 188.162 9.40749 188.188C9.39802 188.188 9.36774 188.222 9.31665 188.291C9.26131 188.366 9.2076 188.423 9.15552 188.462C9.10343 188.501 9.05135 188.485 8.99927 188.413C8.99276 188.407 8.97485 188.363 8.94556 188.282C8.91626 188.2 8.88534 188.156 8.85278 188.15C8.8007 188.15 8.74862 188.199 8.69653 188.296C8.71606 188.244 8.68026 188.195 8.58911 188.15C8.49797 188.104 8.41984 188.078 8.35474 188.072C8.47843 187.993 8.45239 187.906 8.27661 187.808C8.23104 187.782 8.16431 187.766 8.07642 187.759C7.98853 187.753 7.92505 187.766 7.88599 187.798C7.85343 187.844 7.83553 187.881 7.83228 187.91C7.82902 187.94 7.8453 187.966 7.8811 187.989C7.91691 188.011 7.95109 188.029 7.98364 188.042C8.01619 188.055 8.05363 188.068 8.09595 188.081C8.13827 188.094 8.16593 188.104 8.17896 188.111C8.2701 188.176 8.29614 188.221 8.25708 188.247C8.24406 188.254 8.21639 188.265 8.17407 188.282C8.13175 188.298 8.09432 188.312 8.06177 188.325C8.02922 188.339 8.00968 188.352 8.00317 188.365C7.98364 188.391 7.98364 188.436 8.00317 188.501C8.02271 188.566 8.01619 188.612 7.98364 188.638C7.95109 188.605 7.92179 188.548 7.89575 188.467C7.86971 188.386 7.84692 188.332 7.82739 188.306C7.87297 188.365 7.79159 188.384 7.58325 188.365L7.4856 188.355C7.45955 188.355 7.40747 188.361 7.32935 188.374C7.25122 188.387 7.18449 188.391 7.12915 188.384C7.07381 188.378 7.02987 188.352 6.99731 188.306C6.97127 188.254 6.97127 188.189 6.99731 188.111C7.00383 188.085 7.01685 188.078 7.03638 188.091C7.01034 188.072 6.97453 188.041 6.92896 187.998C6.88338 187.956 6.85083 187.928 6.8313 187.915C6.53182 188.013 6.22583 188.146 5.91333 188.316C5.95239 188.322 5.99146 188.319 6.03052 188.306C6.06307 188.293 6.10539 188.272 6.15747 188.242C6.20955 188.213 6.24211 188.195 6.25513 188.189C6.47648 188.098 6.6132 188.075 6.66528 188.12L6.71411 188.072C6.80526 188.176 6.87036 188.257 6.90942 188.316C6.86385 188.29 6.76619 188.286 6.61646 188.306C6.48625 188.345 6.41463 188.384 6.40161 188.423C6.44718 188.501 6.46346 188.56 6.45044 188.599C6.4244 188.579 6.38696 188.547 6.33813 188.501C6.28931 188.456 6.24211 188.42 6.19653 188.394C6.15096 188.368 6.10213 188.352 6.05005 188.345C5.94588 188.345 5.87427 188.348 5.83521 188.355C4.88468 188.876 4.11971 189.598 3.54028 190.523C3.58586 190.568 3.62492 190.594 3.65747 190.601C3.68351 190.607 3.69979 190.637 3.7063 190.689C3.71281 190.741 3.72095 190.777 3.73071 190.796C3.74048 190.816 3.77791 190.806 3.84302 190.767C3.90161 190.819 3.91138 190.881 3.87231 190.952C3.87882 190.946 4.02205 191.034 4.302 191.216C4.4257 191.327 4.49406 191.395 4.50708 191.421C4.52661 191.493 4.49406 191.551 4.40942 191.597C4.40291 191.584 4.37362 191.555 4.32153 191.509C4.26945 191.464 4.24015 191.45 4.23364 191.47C4.21411 191.503 4.21574 191.563 4.23853 191.651C4.25982 191.733 4.29108 191.774 4.33229 191.773C4.2915 191.78 4.2635 191.832 4.24829 191.929C4.23201 192.033 4.22388 192.149 4.22388 192.276C4.22388 192.403 4.22062 192.479 4.21411 192.505L4.23364 192.515C4.21411 192.593 4.23201 192.705 4.28735 192.852C4.34269 192.998 4.41268 193.062 4.49731 193.042C4.41268 193.062 4.47778 193.202 4.69263 193.462C4.73169 193.514 4.75773 193.544 4.77075 193.55C4.79028 193.563 4.82935 193.588 4.88794 193.623C4.94653 193.659 4.99536 193.692 5.03442 193.721C5.07349 193.75 5.10604 193.784 5.13208 193.824C5.15812 193.856 5.19067 193.929 5.22974 194.043C5.2688 194.157 5.31437 194.234 5.36646 194.273C5.35343 194.312 5.38436 194.377 5.45923 194.468C5.5341 194.559 5.56828 194.634 5.56177 194.693C5.55526 194.693 5.54712 194.696 5.53735 194.702C5.52759 194.709 5.51945 194.712 5.51294 194.712C5.53247 194.758 5.58293 194.803 5.66431 194.849C5.74569 194.894 5.79614 194.937 5.81567 194.976C5.82218 194.995 5.82869 195.028 5.83521 195.074C5.84172 195.119 5.85148 195.155 5.8645 195.181C5.87752 195.207 5.90356 195.214 5.94263 195.2C5.95565 195.07 5.87752 194.868 5.70825 194.595C5.6106 194.432 5.55526 194.338 5.54224 194.312C5.52271 194.279 5.5048 194.229 5.48853 194.16C5.47225 194.092 5.4576 194.045 5.44458 194.019C5.4576 194.019 5.47713 194.024 5.50317 194.033C5.52922 194.043 5.55688 194.055 5.58618 194.068C5.61548 194.081 5.63989 194.094 5.65942 194.107C5.67896 194.12 5.68547 194.13 5.67896 194.136C5.65942 194.182 5.66593 194.239 5.69849 194.307C5.73104 194.375 5.7701 194.436 5.81567 194.488C5.86125 194.54 5.91659 194.602 5.98169 194.673C6.04679 194.745 6.08586 194.787 6.09888 194.8C6.13794 194.839 6.18351 194.903 6.2356 194.991C6.28768 195.078 6.28768 195.122 6.2356 195.122C6.29419 195.122 6.35929 195.157 6.43091 195.225C6.50252 195.293 6.55786 195.357 6.59692 195.415C6.62948 195.467 6.65552 195.552 6.67505 195.669C6.69458 195.786 6.71086 195.865 6.72388 195.904C6.7369 195.949 6.76457 195.993 6.80688 196.035C6.8492 196.078 6.88989 196.109 6.92896 196.128L7.08521 196.206L7.21216 196.275C7.24471 196.288 7.30493 196.322 7.39282 196.377C7.48071 196.433 7.5507 196.47 7.60278 196.49C7.66789 196.516 7.71997 196.529 7.75903 196.529C7.7981 196.529 7.8453 196.52 7.90063 196.504C7.95597 196.488 7.99992 196.477 8.03247 196.47C8.13013 196.457 8.22453 196.506 8.31567 196.617C8.40682 196.727 8.47518 196.796 8.52075 196.822C8.75513 196.945 8.93416 196.981 9.05786 196.929C9.04484 196.936 9.04647 196.96 9.06274 197.002C9.07902 197.045 9.10506 197.095 9.14087 197.154C9.17668 197.212 9.20597 197.259 9.22876 197.295C9.25155 197.331 9.26945 197.359 9.28247 197.378C9.31502 197.417 9.37362 197.466 9.45825 197.525C9.54289 197.583 9.60148 197.632 9.63403 197.671C9.66664 197.649 9.68791 197.625 9.69783 197.599C9.68779 197.648 9.7121 197.708 9.77075 197.779C9.83586 197.857 9.89445 197.889 9.94653 197.876C10.0377 197.857 10.0833 197.753 10.0833 197.564C9.88143 197.661 9.72192 197.603 9.60474 197.388C9.60474 197.381 9.5966 197.364 9.58032 197.334C9.56405 197.305 9.55103 197.277 9.54126 197.251C9.53149 197.225 9.52336 197.198 9.51685 197.168C9.51034 197.139 9.51034 197.115 9.51685 197.095C9.52336 197.075 9.53963 197.066 9.56567 197.066C9.62427 197.066 9.65682 197.054 9.66333 197.032C9.66984 197.009 9.66333 196.968 9.6438 196.909C9.62427 196.851 9.61125 196.809 9.60474 196.783C9.59823 196.73 9.56242 196.665 9.49731 196.587C9.43221 196.509 9.39315 196.46 9.38013 196.441C9.34758 196.499 9.29549 196.525 9.22388 196.519C9.15226 196.512 9.10018 196.483 9.06763 196.431C9.06763 196.437 9.06274 196.455 9.05298 196.485C9.04321 196.514 9.03833 196.535 9.03833 196.548C8.95369 196.548 8.90487 196.545 8.89185 196.538C8.89836 196.519 8.90649 196.462 8.91626 196.367C8.92603 196.273 8.93742 196.2 8.95044 196.148C8.95695 196.122 8.97485 196.083 9.00415 196.031C9.03345 195.978 9.05786 195.931 9.07739 195.889C9.09692 195.847 9.10994 195.806 9.11646 195.767C9.12297 195.728 9.10832 195.697 9.07251 195.674C9.0367 195.651 8.97974 195.643 8.90161 195.65C8.77791 195.656 8.69328 195.721 8.64771 195.845C8.64119 195.865 8.63143 195.899 8.61841 195.948C8.60539 195.996 8.58911 196.034 8.56958 196.06C8.55005 196.086 8.52075 196.109 8.48169 196.128C8.43612 196.148 8.35799 196.154 8.24731 196.148C8.13664 196.141 8.05851 196.125 8.01294 196.099C7.9283 196.047 7.85506 195.952 7.79321 195.816C7.73136 195.679 7.70044 195.559 7.70044 195.454C7.70044 195.389 7.70858 195.303 7.72485 195.196C7.74113 195.088 7.7509 195.007 7.75415 194.951C7.75741 194.896 7.7395 194.816 7.70044 194.712C7.71997 194.699 7.74927 194.668 7.78833 194.619C7.82739 194.571 7.85994 194.536 7.88599 194.517C7.89901 194.51 7.91366 194.505 7.92993 194.502C7.94621 194.499 7.96086 194.499 7.97388 194.502C7.9869 194.505 7.99992 194.501 8.01294 194.488C8.02596 194.475 8.03573 194.455 8.04224 194.429C8.03573 194.422 8.02271 194.413 8.00317 194.4C7.99012 194.387 7.97998 194.378 7.97274 194.374C8.02088 194.389 8.11078 194.383 8.24243 194.356C8.38241 194.326 8.47192 194.331 8.51099 194.37C8.60864 194.442 8.68026 194.436 8.72583 194.351C8.72583 194.344 8.71769 194.313 8.70142 194.258C8.68514 194.203 8.68351 194.159 8.69653 194.126C8.72909 194.302 8.82349 194.331 8.97974 194.214C8.99927 194.234 9.04972 194.25 9.1311 194.263C9.21248 194.276 9.26945 194.292 9.302 194.312C9.32153 194.325 9.34432 194.343 9.37036 194.366C9.3964 194.388 9.41431 194.403 9.42407 194.409C9.43384 194.416 9.45011 194.414 9.4729 194.405C9.49569 194.395 9.52336 194.374 9.55591 194.341C9.62101 194.432 9.66008 194.51 9.6731 194.575C9.74471 194.836 9.80656 194.979 9.85864 195.005C9.90422 195.025 9.94002 195.031 9.96606 195.025C9.99211 195.018 10.0068 194.987 10.01 194.932C10.0133 194.877 10.0133 194.831 10.01 194.795C10.0068 194.759 10.0019 194.719 9.99536 194.673L9.9856 194.595V194.419L9.97583 194.341C9.87817 194.322 9.81795 194.283 9.79517 194.224C9.77238 194.165 9.77726 194.105 9.80981 194.043C9.84237 193.981 9.8912 193.921 9.9563 193.863C9.96281 193.856 9.98885 193.845 10.0344 193.828C10.08 193.812 10.1305 193.791 10.1858 193.765C10.2411 193.739 10.2818 193.713 10.3079 193.687C10.4446 193.563 10.4934 193.449 10.4543 193.345C10.4999 193.345 10.5357 193.316 10.5618 193.257C10.5553 193.257 10.539 193.247 10.5129 193.228C10.4869 193.208 10.4625 193.192 10.4397 193.179C10.4169 193.166 10.4023 193.159 10.3958 193.159C10.4543 193.127 10.4609 193.075 10.4153 193.003C10.4478 192.984 10.4722 192.948 10.4885 192.896C10.5048 192.844 10.5292 192.811 10.5618 192.798C10.6204 192.876 10.6887 192.883 10.7668 192.818C10.8189 192.766 10.8222 192.714 10.7766 192.661C10.8092 192.616 10.8759 192.582 10.9768 192.559C11.0777 192.536 11.1379 192.505 11.1575 192.466C11.203 192.479 11.2291 192.473 11.2356 192.447C11.2421 192.421 11.2454 192.381 11.2454 192.329C11.2454 192.277 11.2551 192.238 11.2747 192.212C11.3007 192.18 11.3495 192.15 11.4211 192.124C11.4928 192.098 11.5351 192.082 11.5481 192.075L11.7141 191.968C11.731 191.946 11.7333 191.933 11.7209 191.93C11.8352 191.941 11.9339 191.905 12.0168 191.822C12.082 191.75 12.0624 191.685 11.9583 191.626C11.9778 191.587 11.968 191.556 11.929 191.533C11.8899 191.511 11.8411 191.493 11.7825 191.48C11.802 191.473 11.8394 191.472 11.8948 191.475C11.9501 191.478 11.9843 191.473 11.9973 191.46C12.095 191.395 12.0722 191.343 11.929 191.304C11.8183 191.271 11.6783 191.311 11.509 191.421ZM9.40942 188.189C9.40877 188.189 9.40813 188.188 9.40749 188.188ZM13.3449 198.14C12.4009 199.136 11.2583 199.751 9.9172 199.986C9.90418 199.921 9.89767 199.869 9.89767 199.829C9.89116 199.777 9.91395 199.707 9.96603 199.62C10.0181 199.532 10.0442 199.465 10.0442 199.419C9.93999 199.393 9.90093 199.309 9.92697 199.165C9.93999 199.068 10.0344 198.938 10.2102 198.775C10.3339 198.664 10.3729 198.508 10.3274 198.306C10.3078 198.221 10.2916 198.098 10.2785 197.935C10.266 197.778 10.2534 197.666 10.2408 197.6C10.2475 197.617 10.2779 197.633 10.3322 197.647C10.3941 197.663 10.4315 197.684 10.4445 197.71C10.4576 197.691 10.4738 197.655 10.4934 197.603C10.5129 197.551 10.5324 197.512 10.552 197.486C10.565 197.466 10.5927 197.442 10.635 197.412C10.6773 197.383 10.705 197.365 10.718 197.359C10.731 197.352 10.7603 197.331 10.8059 197.295C10.8514 197.259 10.8889 197.232 10.9182 197.212C10.9475 197.193 10.9865 197.178 11.0354 197.168C11.0842 197.159 11.1184 197.173 11.1379 197.212C11.1705 197.251 11.1639 197.312 11.1184 197.393C11.0728 197.474 11.0728 197.531 11.1184 197.564C11.1249 197.544 11.1314 197.502 11.1379 197.437C11.1444 197.372 11.1639 197.323 11.1965 197.29C11.2356 197.251 11.273 197.229 11.3088 197.222C11.3446 197.216 11.3772 197.22 11.4065 197.237C11.4358 197.253 11.4699 197.276 11.509 197.305C11.5481 197.334 11.5839 197.352 11.6164 197.359C11.7141 197.391 11.8313 197.463 11.968 197.574C11.9615 197.567 11.9615 197.559 11.968 197.549C11.9745 197.539 11.9875 197.53 12.007 197.52C12.0266 197.51 12.0445 197.5 12.0608 197.491C12.077 197.481 12.0949 197.473 12.1145 197.466L12.1438 197.456C12.1893 197.456 12.2219 197.453 12.2414 197.447C12.261 197.44 12.2886 197.447 12.3244 197.466C12.3602 197.486 12.3846 197.5 12.3977 197.51C12.4107 197.52 12.4335 197.538 12.466 197.564C12.4986 197.59 12.5214 197.609 12.5344 197.622C12.5539 197.635 12.5897 197.658 12.6418 197.691C12.6939 197.723 12.7346 197.749 12.7639 197.769C12.7932 197.788 12.8192 197.818 12.842 197.857C12.8648 197.896 12.8729 197.938 12.8664 197.984C12.9055 197.99 12.9836 198.016 13.1008 198.062C13.1203 198.075 13.161 198.086 13.2229 198.096C13.2847 198.106 13.3254 198.12 13.3449 198.14ZM10.2395 197.593C10.2399 197.595 10.2404 197.598 10.2408 197.6C10.2399 197.598 10.2395 197.596 10.2395 197.593Z" fill="white"/>
</g>
<g clip-path="url(#clip5_0_189)">
<path d="M14.6839 232.113H2.91599C1.98297 232.113 1.23486 232.836 1.23486 233.719V244.31C1.23486 245.193 1.98297 245.916 2.91599 245.916H6.27825L8.79994 248L11.3216 245.916H14.6839C15.6085 245.916 16.365 245.193 16.365 244.31V233.719C16.365 232.836 15.6085 232.113 14.6839 232.113Z" fill="#328CFF"/>
<path fill-rule="evenodd" clip-rule="evenodd" d="M14.6839 232.113H2.91599C1.98297 232.113 1.23486 232.836 1.23486 233.719V244.31C1.23486 245.193 1.98297 245.916 2.91599 245.916H6.27825L8.79994 248L11.3216 245.916H14.6839C15.6085 245.916 16.365 245.193 16.365 244.31V233.719C16.365 232.836 15.6085 232.113 14.6839 232.113ZM9.48769 244.433H8.11223V243.137H9.48769V244.433ZM10.2924 239.356L10.9113 238.76C11.3033 238.39 11.5509 237.871 11.5509 237.301C11.5509 235.868 10.3199 234.707 8.79999 234.707C7.2801 234.707 6.04905 235.868 6.04905 237.301H7.42452C7.42452 236.587 8.04348 236.004 8.79999 236.004C9.5565 236.004 10.1755 236.587 10.1755 237.301C10.1755 237.657 10.0242 237.982 9.7697 238.215L8.9169 239.032C8.42174 239.505 8.11226 240.154 8.11226 240.867V241.191H9.48772C9.48772 240.219 9.7972 239.83 10.2924 239.356Z" fill="white"/>
</g>
<defs>
<clipPath id="clip0_0_189">
<rect width="18" height="18" fill="white"/>
</clipPath>
<clipPath id="clip1_0_189">
<rect width="16" height="16" fill="white" transform="translate(1 48)"/>
</clipPath>
<clipPath id="clip2_0_189">
<rect width="16" height="16" fill="white" transform="translate(1 94)"/>
</clipPath>
<clipPath id="clip3_0_189">
<rect width="16" height="16" fill="white" transform="translate(1 140)"/>
</clipPath>
<clipPath id="clip4_0_189">
<rect width="16" height="16" fill="white" transform="translate(1 186)"/>
</clipPath>
<clipPath id="clip5_0_189">
<rect width="16" height="16" fill="white" transform="translate(1 232)"/>
</clipPath>
</defs>
</svg>
