<svg width="18" height="248" viewBox="0 0 18 248" fill="none" xmlns="http://www.w3.org/2000/svg">
<g clip-path="url(#clip0_0_997)">
<path d="M7.2 18V10.8309H10.8V18H15.3V9.44118H18L9 0L0 9.44118H2.7V18H7.2Z" fill="white"/>
</g>
<g clip-path="url(#clip1_0_997)">
<path d="M2.62505 49.7205H15.4028C16.2849 49.7205 17 50.4866 17 51.4318V62.3841C17 63.3293 16.2849 64.0954 15.4028 64.0954H2.62505C1.74293 64.0954 1.02783 63.3293 1.02783 62.3841V51.4318C1.02783 50.4866 1.74293 49.7205 2.62505 49.7205Z" fill="white"/>
<path d="M13.79 55.6321H3.40812C2.74653 55.6321 2.21021 56.2067 2.21021 56.9156V58.0279H5.87246C6.08426 58.0279 6.28739 58.1181 6.43716 58.2785L7.23577 59.1342C7.59734 59.5216 8.08774 59.7392 8.59908 59.7392C9.11043 59.7392 9.60082 59.5216 9.9624 59.1342L10.761 58.2785C10.9108 58.1181 11.1139 58.0279 11.3257 58.0279H14.988V56.9156C14.988 56.2067 14.4516 55.6321 13.79 55.6321Z" fill="#328CFF"/>
<path d="M3.82298 48.009C3.16139 48.009 2.62506 48.5837 2.62506 49.2925V53.143H15.4028V49.2925C15.4028 48.5837 14.8665 48.009 14.2049 48.009H3.82298Z" fill="#328CFF"/>
<path d="M2.75513 51.4316C1.95745 51.4316 1.31079 52.0063 1.31079 52.7151V55.1965H16.7171V52.7151C16.7171 52.0063 16.0705 51.4316 15.2728 51.4316H2.75513Z" fill="white"/>
</g>
<g clip-path="url(#clip2_0_997)">
<path opacity="0.3" d="M12.3962 94.3333H14.6294C15.9386 94.3333 17 95.3854 17 96.6833V107.65C17 108.948 15.9386 110 14.6294 110H12.3962V94.3333Z" fill="#328CFF"/>
<path d="M2.12352 94.3333H11.606C12.9152 94.3333 13.9766 95.3854 13.9766 96.6833V107.65C13.9766 108.948 12.9152 110 11.606 110H2.12352C1.6871 110 1.33331 109.649 1.33331 109.217V95.1166C1.33331 94.684 1.6871 94.3333 2.12352 94.3333Z" fill="#328CFF"/>
<path fill-rule="evenodd" clip-rule="evenodd" d="M2.12352 94.3333H12.2588C13.568 94.3333 14.6294 95.3854 14.6294 96.6833V107.65C14.6294 108.948 13.568 110 12.2588 110H2.12352C1.6871 110 1.33331 109.649 1.33331 109.217V95.1166C1.33331 94.684 1.6871 94.3333 2.12352 94.3333ZM7.7443 101.383C8.61714 101.383 9.32471 100.682 9.32471 99.8166C9.32471 98.9513 8.61714 98.2499 7.7443 98.2499C6.87146 98.2499 6.16389 98.9513 6.16389 99.8166C6.16389 100.682 6.87146 101.383 7.7443 101.383ZM4.26379 106.083C4.15369 106.083 3.93543 105.818 3.9447 105.691C4.11486 103.355 5.81541 102.167 7.88813 102.167C9.99002 102.167 11.7169 103.289 11.8455 105.692C11.8507 105.787 11.8455 106.083 11.5158 106.083H4.26379Z" fill="white"/>
</g>
<g clip-path="url(#clip3_0_997)">
<path d="M7.54367 146.445V145.809H2.03766L2.02979 152.643C2.02979 153.349 2.73084 153.915 3.60518 153.915H14.633C15.5073 153.915 16.2084 153.349 16.2084 152.643V145.809H10.6945V146.445H7.54367Z" fill="#328CFF"/>
<path d="M15.4207 143.314H12.9237V141.77L11.3483 140.227H6.87414L5.30662 141.77V143.314H2.82143C1.95102 143.314 1.24603 144.005 1.24603 144.858V147.836C1.24603 148.689 1.95102 149.38 2.82143 149.38H7.54762V147.836H10.6984V149.38H15.4246C16.295 149.38 17 148.689 17 147.836V144.858C16.9961 144.005 16.2911 143.314 15.4207 143.314Z" fill="white"/>
<path d="M7.54367 151.585V150.813H2.03766L2.02979 154.563C2.02979 155.42 2.73084 156.107 3.60518 156.107H14.633C15.5073 156.107 16.2084 155.42 16.2084 154.563V150.813H10.6945V151.585H7.54367Z" fill="white"/>
<path d="M10.6905 143.314H7.53973V141.771H10.6905V143.314Z" fill="#328CFF"/>
</g>
<g clip-path="url(#clip4_0_997)">
<path d="M8.99996 186.667C10.3304 186.667 11.5574 186.994 12.6809 187.65C13.8045 188.306 14.6941 189.195 15.3498 190.319C16.0055 191.442 16.3333 192.669 16.3333 194C16.3333 195.33 16.0055 196.557 15.3498 197.681C14.6941 198.804 13.8045 199.694 12.6809 200.35C11.5574 201.005 10.3304 201.333 8.99996 201.333C7.66952 201.333 6.44252 201.005 5.31897 200.35C4.19542 199.694 3.3058 198.804 2.65013 197.681C1.99446 196.557 1.66663 195.33 1.66663 194C1.66663 192.669 1.99446 191.442 2.65013 190.319C3.3058 189.195 4.19542 188.306 5.31897 187.65C6.44252 186.994 7.66952 186.667 8.99996 186.667Z" fill="#328CFF"/>
<path fill-rule="evenodd" clip-rule="evenodd" d="M8.83331 186.333C10.194 186.333 11.4489 186.669 12.598 187.339C13.7471 188.01 14.6569 188.92 15.3275 190.069C15.998 191.218 16.3333 192.473 16.3333 193.833C16.3333 195.194 15.998 196.449 15.3275 197.598C14.6569 198.747 13.7471 199.657 12.598 200.327C11.4489 200.998 10.194 201.333 8.83331 201.333C7.47264 201.333 6.21775 200.998 5.06866 200.327C3.91958 199.657 3.00975 198.747 2.33917 197.598C1.6686 196.449 1.33331 195.194 1.33331 193.833C1.33331 192.473 1.6686 191.218 2.33917 190.069C3.00975 188.92 3.91958 188.01 5.06866 187.339C6.21775 186.669 7.47264 186.333 8.83331 186.333ZM11.5091 191.421C11.4961 191.428 11.4651 191.459 11.4163 191.514C11.3702 191.566 11.3284 191.597 11.291 191.605C11.3023 191.601 11.3148 191.585 11.3284 191.558C11.3447 191.525 11.361 191.49 11.3773 191.45C11.3935 191.411 11.4049 191.389 11.4114 191.382C11.4505 191.337 11.5221 191.288 11.6263 191.236C11.7174 191.197 11.8867 191.158 12.1341 191.118C12.3554 191.066 12.5215 191.102 12.6321 191.226C12.6191 191.213 12.65 191.171 12.7249 191.099C12.7998 191.027 12.847 190.988 12.8665 190.982C12.886 190.969 12.9349 190.954 13.013 190.938C13.0911 190.922 13.14 190.897 13.1595 190.865L13.179 190.65C13.1009 190.656 13.0439 190.633 13.0081 190.581C12.9723 190.529 12.9512 190.461 12.9446 190.376C12.9446 190.389 12.9251 190.415 12.886 190.454C12.886 190.409 12.8714 190.383 12.8421 190.376C12.8128 190.37 12.7754 190.373 12.7298 190.386C12.6842 190.399 12.6549 190.402 12.6419 190.396C12.5768 190.376 12.528 190.352 12.4954 190.323C12.4629 190.293 12.4368 190.24 12.4173 190.161C12.3978 190.083 12.3847 190.034 12.3782 190.015C12.3652 189.982 12.3343 189.947 12.2855 189.908C12.2366 189.868 12.2057 189.836 12.1927 189.81C12.1862 189.797 12.178 189.779 12.1683 189.756C12.1585 189.733 12.1487 189.712 12.139 189.693C12.1292 189.673 12.1162 189.655 12.0999 189.639C12.0836 189.623 12.0657 189.615 12.0462 189.615C12.0267 189.615 12.0039 189.631 11.9778 189.663C11.9518 189.696 11.9274 189.728 11.9046 189.761C11.8818 189.794 11.8672 189.81 11.8607 189.81C11.8411 189.797 11.8216 189.792 11.8021 189.795C11.7825 189.798 11.7679 189.802 11.7581 189.805C11.7484 189.808 11.7337 189.818 11.7142 189.834C11.6946 189.851 11.6784 189.862 11.6653 189.868C11.6458 189.881 11.6181 189.891 11.5823 189.898C11.5465 189.904 11.5189 189.911 11.4993 189.917C11.597 189.885 11.5937 189.849 11.4896 189.81C11.4245 189.784 11.3724 189.774 11.3333 189.781C11.3919 189.755 11.4163 189.715 11.4066 189.663C11.3968 189.611 11.3691 189.566 11.3235 189.527H11.3724C11.3659 189.501 11.3382 189.473 11.2894 189.444C11.2405 189.414 11.1836 189.387 11.1185 189.361C11.0534 189.335 11.011 189.315 10.9915 189.302C10.9394 189.269 10.8288 189.239 10.6595 189.209C10.4902 189.18 10.3828 189.178 10.3372 189.204C10.3047 189.243 10.29 189.278 10.2933 189.307C10.2965 189.336 10.3096 189.382 10.3323 189.444C10.3551 189.505 10.3665 189.546 10.3665 189.566C10.373 189.605 10.3551 189.647 10.3128 189.693C10.2705 189.738 10.2493 189.777 10.2493 189.81C10.2493 189.855 10.2949 189.906 10.386 189.961C10.4772 190.017 10.5097 190.087 10.4837 190.171C10.4642 190.223 10.4121 190.275 10.3275 190.327C10.2428 190.38 10.1907 190.419 10.1712 190.445C10.1387 190.497 10.1338 190.557 10.1566 190.625C10.1793 190.694 10.2135 190.747 10.2591 190.786C10.2721 190.799 10.277 190.812 10.2737 190.825C10.2705 190.839 10.2591 190.853 10.2396 190.869C10.22 190.886 10.2021 190.899 10.1859 190.908C10.1696 190.918 10.1484 190.93 10.1224 190.943L10.0931 190.962C10.0215 190.995 9.95473 190.975 9.89288 190.904C9.83103 190.832 9.78709 190.747 9.76105 190.65C9.71548 190.487 9.66339 190.389 9.6048 190.357C9.45506 190.305 9.36066 190.308 9.32159 190.367C9.28904 190.282 9.15558 190.197 8.9212 190.113C8.75844 190.054 8.56964 190.041 8.3548 190.074C8.39386 190.067 8.39386 190.018 8.3548 189.927C8.30922 189.829 8.24738 189.79 8.16925 189.81C8.18878 189.771 8.2018 189.714 8.20831 189.639C8.21482 189.564 8.21808 189.52 8.21808 189.507C8.23761 189.422 8.27667 189.348 8.33527 189.283C8.34178 189.276 8.36456 189.248 8.40363 189.2C8.44269 189.151 8.47361 189.107 8.4964 189.068C8.51919 189.029 8.52081 189.009 8.50128 189.009C8.72915 189.035 8.89191 188.999 8.98956 188.902C9.02212 188.869 9.05955 188.814 9.10187 188.736C9.14419 188.658 9.17837 188.602 9.20441 188.57C9.263 188.531 9.30857 188.513 9.34113 188.516C9.37368 188.519 9.42088 188.537 9.48273 188.57C9.54458 188.602 9.59178 188.618 9.62433 188.618C9.71548 188.625 9.76593 188.589 9.7757 188.511C9.78546 188.433 9.76105 188.368 9.70245 188.316C9.78058 188.322 9.79034 188.267 9.73175 188.15C9.70571 188.104 9.67967 188.075 9.65363 188.062C9.5755 188.036 9.48761 188.052 9.38995 188.111C9.33839 188.136 9.34426 188.162 9.40755 188.188C9.39808 188.188 9.3678 188.222 9.31671 188.291C9.26137 188.366 9.20766 188.423 9.15558 188.462C9.1035 188.501 9.05141 188.485 8.99933 188.413C8.99282 188.407 8.97491 188.363 8.94562 188.282C8.91632 188.2 8.8854 188.156 8.85284 188.15C8.80076 188.15 8.74868 188.199 8.69659 188.296C8.71613 188.244 8.68032 188.195 8.58917 188.15C8.49803 188.104 8.4199 188.078 8.3548 188.072C8.4785 187.993 8.45245 187.906 8.27667 187.808C8.2311 187.782 8.16437 187.766 8.07648 187.759C7.98859 187.753 7.92511 187.766 7.88605 187.798C7.8535 187.844 7.83559 187.881 7.83234 187.91C7.82908 187.94 7.84536 187.966 7.88116 187.989C7.91697 188.011 7.95115 188.029 7.9837 188.042C8.01626 188.055 8.05369 188.068 8.09601 188.081C8.13833 188.094 8.166 188.104 8.17902 188.111C8.27016 188.176 8.2962 188.221 8.25714 188.247C8.24412 188.254 8.21645 188.265 8.17413 188.282C8.13182 188.298 8.09438 188.312 8.06183 188.325C8.02928 188.339 8.00975 188.352 8.00323 188.365C7.9837 188.391 7.9837 188.436 8.00323 188.501C8.02277 188.566 8.01626 188.612 7.9837 188.638C7.95115 188.605 7.92185 188.548 7.89581 188.467C7.86977 188.386 7.84698 188.332 7.82745 188.306C7.87303 188.365 7.79165 188.384 7.58331 188.365L7.48566 188.355C7.45962 188.355 7.40753 188.361 7.32941 188.374C7.25128 188.387 7.18455 188.391 7.12921 188.384C7.07387 188.378 7.02993 188.352 6.99738 188.306C6.97133 188.254 6.97133 188.189 6.99738 188.111C7.00389 188.085 7.01691 188.078 7.03644 188.091C7.0104 188.072 6.97459 188.041 6.92902 187.998C6.88344 187.956 6.85089 187.928 6.83136 187.915C6.53188 188.013 6.22589 188.146 5.91339 188.316C5.95245 188.322 5.99152 188.319 6.03058 188.306C6.06313 188.293 6.10545 188.272 6.15753 188.242C6.20962 188.213 6.24217 188.195 6.25519 188.189C6.47654 188.098 6.61326 188.075 6.66534 188.12L6.71417 188.072C6.80532 188.176 6.87042 188.257 6.90948 188.316C6.86391 188.29 6.76626 188.286 6.61652 188.306C6.48631 188.345 6.41469 188.384 6.40167 188.423C6.44725 188.501 6.46352 188.56 6.4505 188.599C6.42446 188.579 6.38702 188.547 6.3382 188.501C6.28937 188.456 6.24217 188.42 6.19659 188.394C6.15102 188.368 6.10219 188.352 6.05011 188.345C5.94594 188.345 5.87433 188.348 5.83527 188.355C4.88475 188.876 4.11977 189.598 3.54034 190.523C3.58592 190.568 3.62498 190.594 3.65753 190.601C3.68357 190.607 3.69985 190.637 3.70636 190.689C3.71287 190.741 3.72101 190.777 3.73077 190.796C3.74054 190.816 3.77797 190.806 3.84308 190.767C3.90167 190.819 3.91144 190.881 3.87238 190.952C3.87889 190.946 4.02211 191.034 4.30206 191.216C4.42576 191.327 4.49412 191.395 4.50714 191.421C4.52667 191.493 4.49412 191.551 4.40948 191.597C4.40297 191.584 4.37368 191.555 4.32159 191.509C4.26951 191.464 4.24021 191.45 4.2337 191.47C4.21417 191.503 4.2158 191.563 4.23859 191.651C4.25989 191.733 4.29114 191.774 4.33235 191.773C4.29156 191.78 4.26356 191.832 4.24835 191.929C4.23208 192.033 4.22394 192.149 4.22394 192.276C4.22394 192.403 4.22068 192.479 4.21417 192.505L4.2337 192.515C4.21417 192.593 4.23208 192.705 4.28741 192.852C4.34275 192.998 4.41274 193.062 4.49738 193.042C4.41274 193.062 4.47784 193.202 4.69269 193.462C4.73175 193.514 4.75779 193.544 4.77081 193.55C4.79034 193.563 4.82941 193.588 4.888 193.623C4.94659 193.659 4.99542 193.692 5.03448 193.721C5.07355 193.75 5.1061 193.784 5.13214 193.824C5.15818 193.856 5.19073 193.929 5.2298 194.043C5.26886 194.157 5.31443 194.234 5.36652 194.273C5.3535 194.312 5.38442 194.377 5.45929 194.468C5.53416 194.559 5.56834 194.634 5.56183 194.693C5.55532 194.693 5.54718 194.696 5.53741 194.702C5.52765 194.709 5.51951 194.712 5.513 194.712C5.53253 194.758 5.58299 194.803 5.66437 194.849C5.74575 194.894 5.7962 194.937 5.81573 194.976C5.82225 194.995 5.82876 195.028 5.83527 195.074C5.84178 195.119 5.85154 195.155 5.86456 195.181C5.87758 195.207 5.90363 195.214 5.94269 195.2C5.95571 195.07 5.87758 194.868 5.70831 194.595C5.61066 194.432 5.55532 194.338 5.5423 194.312C5.52277 194.279 5.50486 194.229 5.48859 194.16C5.47231 194.092 5.45766 194.045 5.44464 194.019C5.45766 194.019 5.47719 194.024 5.50323 194.033C5.52928 194.043 5.55695 194.055 5.58624 194.068C5.61554 194.081 5.63995 194.094 5.65948 194.107C5.67902 194.12 5.68553 194.13 5.67902 194.136C5.65948 194.182 5.666 194.239 5.69855 194.307C5.7311 194.375 5.77016 194.436 5.81573 194.488C5.86131 194.54 5.91665 194.602 5.98175 194.673C6.04685 194.745 6.08592 194.787 6.09894 194.8C6.138 194.839 6.18357 194.903 6.23566 194.991C6.28774 195.078 6.28774 195.122 6.23566 195.122C6.29425 195.122 6.35935 195.157 6.43097 195.225C6.50258 195.293 6.55792 195.357 6.59698 195.415C6.62954 195.467 6.65558 195.552 6.67511 195.669C6.69464 195.786 6.71092 195.865 6.72394 195.904C6.73696 195.949 6.76463 195.993 6.80695 196.035C6.84926 196.078 6.88995 196.109 6.92902 196.128L7.08527 196.206L7.21222 196.275C7.24477 196.288 7.30499 196.322 7.39288 196.377C7.48077 196.433 7.55076 196.47 7.60284 196.49C7.66795 196.516 7.72003 196.529 7.75909 196.529C7.79816 196.529 7.84536 196.52 7.9007 196.504C7.95603 196.488 7.99998 196.477 8.03253 196.47C8.13019 196.457 8.22459 196.506 8.31573 196.617C8.40688 196.727 8.47524 196.796 8.52081 196.822C8.75519 196.945 8.93422 196.981 9.05792 196.929C9.0449 196.936 9.04653 196.96 9.06281 197.002C9.07908 197.045 9.10512 197.095 9.14093 197.154C9.17674 197.212 9.20603 197.259 9.22882 197.295C9.25161 197.331 9.26951 197.359 9.28253 197.378C9.31508 197.417 9.37368 197.466 9.45831 197.525C9.54295 197.583 9.60154 197.632 9.63409 197.671C9.6667 197.649 9.68797 197.625 9.69789 197.599C9.68785 197.648 9.71216 197.708 9.77081 197.779C9.83592 197.857 9.89451 197.889 9.94659 197.876C10.0377 197.857 10.0833 197.753 10.0833 197.564C9.88149 197.661 9.72198 197.603 9.6048 197.388C9.6048 197.381 9.59666 197.364 9.58038 197.334C9.56411 197.305 9.55109 197.277 9.54132 197.251C9.53156 197.225 9.52342 197.198 9.51691 197.168C9.5104 197.139 9.5104 197.115 9.51691 197.095C9.52342 197.075 9.53969 197.066 9.56573 197.066C9.62433 197.066 9.65688 197.054 9.66339 197.032C9.6699 197.009 9.66339 196.968 9.64386 196.909C9.62433 196.851 9.61131 196.809 9.6048 196.783C9.59829 196.73 9.56248 196.665 9.49738 196.587C9.43227 196.509 9.39321 196.46 9.38019 196.441C9.34764 196.499 9.29555 196.525 9.22394 196.519C9.15232 196.512 9.10024 196.483 9.06769 196.431C9.06769 196.437 9.06281 196.455 9.05304 196.485C9.04327 196.514 9.03839 196.535 9.03839 196.548C8.95376 196.548 8.90493 196.545 8.89191 196.538C8.89842 196.519 8.90656 196.462 8.91632 196.367C8.92609 196.273 8.93748 196.2 8.9505 196.148C8.95701 196.122 8.97491 196.083 9.00421 196.031C9.03351 195.978 9.05792 195.931 9.07745 195.889C9.09698 195.847 9.11001 195.806 9.11652 195.767C9.12303 195.728 9.10838 195.697 9.07257 195.674C9.03676 195.651 8.9798 195.643 8.90167 195.65C8.77797 195.656 8.69334 195.721 8.64777 195.845C8.64126 195.865 8.63149 195.899 8.61847 195.948C8.60545 195.996 8.58917 196.034 8.56964 196.06C8.55011 196.086 8.52081 196.109 8.48175 196.128C8.43618 196.148 8.35805 196.154 8.24738 196.148C8.1367 196.141 8.05857 196.125 8.013 196.099C7.92837 196.047 7.85512 195.952 7.79327 195.816C7.73143 195.679 7.7005 195.559 7.7005 195.454C7.7005 195.389 7.70864 195.303 7.72491 195.196C7.74119 195.088 7.75096 195.007 7.75421 194.951C7.75747 194.896 7.73956 194.816 7.7005 194.712C7.72003 194.699 7.74933 194.668 7.78839 194.619C7.82745 194.571 7.86001 194.536 7.88605 194.517C7.89907 194.51 7.91372 194.505 7.92999 194.502C7.94627 194.499 7.96092 194.499 7.97394 194.502C7.98696 194.505 7.99998 194.501 8.013 194.488C8.02602 194.475 8.03579 194.455 8.0423 194.429C8.03579 194.422 8.02277 194.413 8.00323 194.4C7.99018 194.387 7.98004 194.378 7.9728 194.374C8.02095 194.389 8.11084 194.383 8.24249 194.356C8.38247 194.326 8.47198 194.331 8.51105 194.37C8.6087 194.442 8.68032 194.436 8.72589 194.351C8.72589 194.344 8.71775 194.313 8.70148 194.258C8.6852 194.203 8.68357 194.159 8.69659 194.126C8.72915 194.302 8.82355 194.331 8.9798 194.214C8.99933 194.234 9.04978 194.25 9.13116 194.263C9.21254 194.276 9.26951 194.292 9.30206 194.312C9.32159 194.325 9.34438 194.343 9.37042 194.366C9.39646 194.388 9.41437 194.403 9.42413 194.409C9.4339 194.416 9.45018 194.414 9.47296 194.405C9.49575 194.395 9.52342 194.374 9.55597 194.341C9.62107 194.432 9.66014 194.51 9.67316 194.575C9.74477 194.836 9.80662 194.979 9.8587 195.005C9.90428 195.025 9.94008 195.031 9.96613 195.025C9.99217 195.018 10.0068 194.987 10.0101 194.932C10.0133 194.877 10.0133 194.831 10.0101 194.795C10.0068 194.759 10.0019 194.719 9.99542 194.673L9.98566 194.595V194.419L9.97589 194.341C9.87823 194.322 9.81801 194.283 9.79523 194.224C9.77244 194.165 9.77732 194.105 9.80988 194.043C9.84243 193.981 9.89126 193.921 9.95636 193.863C9.96287 193.856 9.98891 193.845 10.0345 193.828C10.0801 193.812 10.1305 193.791 10.1859 193.765C10.2412 193.739 10.2819 193.713 10.3079 193.687C10.4446 193.563 10.4935 193.449 10.4544 193.345C10.5 193.345 10.5358 193.316 10.5618 193.257C10.5553 193.257 10.539 193.247 10.513 193.228C10.487 193.208 10.4625 193.192 10.4398 193.179C10.417 193.166 10.4023 193.159 10.3958 193.159C10.4544 193.127 10.4609 193.075 10.4153 193.003C10.4479 192.984 10.4723 192.948 10.4886 192.896C10.5049 192.844 10.5293 192.811 10.5618 192.798C10.6204 192.876 10.6888 192.883 10.7669 192.818C10.819 192.766 10.8222 192.714 10.7767 192.661C10.8092 192.616 10.876 192.582 10.9769 192.559C11.0778 192.536 11.138 192.505 11.1575 192.466C11.2031 192.479 11.2291 192.473 11.2357 192.447C11.2422 192.421 11.2454 192.381 11.2454 192.329C11.2454 192.277 11.2552 192.238 11.2747 192.212C11.3008 192.18 11.3496 192.15 11.4212 192.124C11.4928 192.098 11.5351 192.082 11.5482 192.075L11.7142 191.968C11.7311 191.946 11.7334 191.933 11.721 191.93C11.8353 191.941 11.9339 191.905 12.0169 191.822C12.082 191.75 12.0625 191.685 11.9583 191.626C11.9778 191.587 11.9681 191.556 11.929 191.533C11.89 191.511 11.8411 191.493 11.7825 191.48C11.8021 191.473 11.8395 191.472 11.8948 191.475C11.9502 191.478 11.9844 191.473 11.9974 191.46C12.095 191.395 12.0722 191.343 11.929 191.304C11.8183 191.271 11.6784 191.311 11.5091 191.421ZM9.40948 188.189C9.40883 188.189 9.40819 188.188 9.40755 188.188ZM13.345 198.14C12.401 199.136 11.2584 199.751 9.91726 199.986C9.90424 199.921 9.89773 199.869 9.89773 199.829C9.89122 199.777 9.91401 199.707 9.96609 199.62C10.0182 199.532 10.0442 199.465 10.0442 199.419C9.94005 199.393 9.90099 199.309 9.92703 199.165C9.94005 199.068 10.0345 198.938 10.2102 198.775C10.3339 198.664 10.373 198.508 10.3274 198.306C10.3079 198.221 10.2916 198.098 10.2786 197.935C10.266 197.778 10.2535 197.666 10.2409 197.6C10.2475 197.617 10.278 197.633 10.3323 197.647C10.3942 197.663 10.4316 197.684 10.4446 197.71C10.4576 197.691 10.4739 197.655 10.4934 197.603C10.513 197.551 10.5325 197.512 10.552 197.486C10.565 197.466 10.5927 197.442 10.635 197.412C10.6774 197.383 10.705 197.365 10.718 197.359C10.7311 197.352 10.7604 197.331 10.8059 197.295C10.8515 197.259 10.8889 197.232 10.9182 197.212C10.9475 197.193 10.9866 197.178 11.0354 197.168C11.0843 197.159 11.1184 197.173 11.138 197.212C11.1705 197.251 11.164 197.312 11.1184 197.393C11.0729 197.474 11.0729 197.531 11.1184 197.564C11.1249 197.544 11.1315 197.502 11.138 197.437C11.1445 197.372 11.164 197.323 11.1966 197.29C11.2356 197.251 11.2731 197.229 11.3089 197.222C11.3447 197.216 11.3772 197.22 11.4065 197.237C11.4358 197.253 11.47 197.276 11.5091 197.305C11.5481 197.334 11.5839 197.352 11.6165 197.359C11.7141 197.391 11.8313 197.463 11.968 197.574C11.9615 197.567 11.9615 197.559 11.968 197.549C11.9746 197.539 11.9876 197.53 12.0071 197.52C12.0266 197.51 12.0445 197.5 12.0608 197.491C12.0771 197.481 12.095 197.473 12.1145 197.466L12.1438 197.456C12.1894 197.456 12.2219 197.453 12.2415 197.447C12.261 197.44 12.2887 197.447 12.3245 197.466C12.3603 197.486 12.3847 197.5 12.3977 197.51C12.4108 197.52 12.4335 197.538 12.4661 197.564C12.4986 197.59 12.5214 197.609 12.5344 197.622C12.554 197.635 12.5898 197.658 12.6419 197.691C12.694 197.723 12.7346 197.749 12.7639 197.769C12.7932 197.788 12.8193 197.818 12.8421 197.857C12.8649 197.896 12.873 197.938 12.8665 197.984C12.9055 197.99 12.9837 198.016 13.1009 198.062C13.1204 198.075 13.1611 198.086 13.2229 198.096C13.2848 198.106 13.3255 198.12 13.345 198.14ZM10.2395 197.593C10.24 197.595 10.2404 197.598 10.2409 197.6C10.24 197.598 10.2395 197.596 10.2395 197.593Z" fill="white"/>
</g>
<g clip-path="url(#clip5_0_997)">
<path d="M14.684 232.113H2.91605C1.98303 232.113 1.23492 232.836 1.23492 233.719V244.31C1.23492 245.193 1.98303 245.916 2.91605 245.916H6.27831L8.8 248L11.3217 245.916H14.684C15.6086 245.916 16.3651 245.193 16.3651 244.31V233.719C16.3651 232.836 15.6086 232.113 14.684 232.113Z" fill="#328CFF"/>
<path fill-rule="evenodd" clip-rule="evenodd" d="M14.684 232.113H2.91605C1.98303 232.113 1.23492 232.836 1.23492 233.719V244.31C1.23492 245.193 1.98303 245.916 2.91605 245.916H6.27831L8.8 248L11.3217 245.916H14.684C15.6086 245.916 16.3651 245.193 16.3651 244.31V233.719C16.3651 232.836 15.6086 232.113 14.684 232.113ZM9.48775 244.433H8.11229V243.137H9.48775V244.433ZM10.2924 239.356L10.9114 238.76C11.3034 238.39 11.551 237.871 11.551 237.301C11.551 235.868 10.3199 234.707 8.80005 234.707C7.28016 234.707 6.04911 235.868 6.04911 237.301H7.42458C7.42458 236.587 8.04354 236.004 8.80005 236.004C9.55656 236.004 10.1755 236.587 10.1755 237.301C10.1755 237.657 10.0242 237.982 9.76976 238.215L8.91697 239.032C8.4218 239.505 8.11232 240.154 8.11232 240.867V241.191H9.48779C9.48779 240.219 9.79727 239.83 10.2924 239.356Z" fill="white"/>
</g>
<defs>
<clipPath id="clip0_0_997">
<rect width="18" height="18" fill="white"/>
</clipPath>
<clipPath id="clip1_0_997">
<rect width="16" height="16" fill="white" transform="translate(1 48)"/>
</clipPath>
<clipPath id="clip2_0_997">
<rect width="16" height="16" fill="white" transform="translate(1 94)"/>
</clipPath>
<clipPath id="clip3_0_997">
<rect width="16" height="16" fill="white" transform="translate(1 140)"/>
</clipPath>
<clipPath id="clip4_0_997">
<rect width="16" height="16" fill="white" transform="translate(1 186)"/>
</clipPath>
<clipPath id="clip5_0_997">
<rect width="16" height="16" fill="white" transform="translate(1 232)"/>
</clipPath>
</defs>
</svg>
