<svg width="14" height="14" viewBox="0 0 14 14" fill="none" xmlns="http://www.w3.org/2000/svg">
<g clip-path="url(#clip0_0_1270)">
<path fill-rule="evenodd" clip-rule="evenodd" d="M12.1617 2.75769H6.50529C6.07638 2.75769 5.72765 2.40896 5.7268 1.98005C5.7268 1.2389 6.32965 0.636475 7.07038 0.636475H11.5958C12.3369 0.636475 12.9393 1.23932 12.9393 1.98005C12.9393 2.40896 12.5906 2.75769 12.1617 2.75769ZM0.636673 5.02011C0.636673 3.88272 1.53225 1.69702 2.75788 1.69702C3.98352 1.69702 4.8791 3.88272 4.8791 5.02011C4.8791 5.92969 4.33988 6.71072 3.57498 7.04205L3.81849 12.3578C3.81849 12.917 3.34249 13.3637 2.75788 13.3637C2.17328 13.3637 1.69728 12.9165 1.69728 12.3676L1.94079 7.04205C1.17589 6.71072 0.636673 5.92926 0.636673 5.02011ZM12.8376 3.95105L12.7357 3.82718C12.6153 3.68039 12.5126 3.50518 12.4303 3.30578C12.3959 3.22305 12.3085 3.17002 12.2233 3.17469C12.2059 3.17554 12.1893 3.17766 12.1617 3.1819L6.49471 3.18021C6.48834 3.17936 6.45016 3.17512 6.4438 3.17469C6.35004 3.16875 6.27113 3.22263 6.23677 3.30578C6.15446 3.50518 6.0518 3.68081 5.93131 3.82718L5.82949 3.95063C5.4901 4.36342 5.30301 4.88184 5.30301 5.41045V12.091C5.30301 12.7927 5.88762 13.3637 6.60586 13.3637H12.0603C12.7786 13.3637 13.3632 12.7927 13.3632 12.091V5.41087C13.364 4.88184 13.1774 4.36342 12.8376 3.95105ZM11.879 9.97007C11.9961 9.97007 12.0912 9.87504 12.0912 9.75795V6.36401C12.0912 6.24692 11.9961 6.15189 11.879 6.15189H6.78814C6.67105 6.15189 6.57602 6.24692 6.57602 6.36401V9.75795C6.57602 9.87504 6.67105 9.97007 6.78814 9.97007H11.879Z" fill="#33344F"/>
</g>
<defs>
<clipPath id="clip0_0_1270">
<rect width="14" height="14" fill="white"/>
</clipPath>
</defs>
</svg>
