<svg width="16" height="16" viewBox="0 0 16 16" fill="none" xmlns="http://www.w3.org/2000/svg">
<g clip-path="url(#clip0_0_3071)">
<path d="M7.99984 0.666504C9.33028 0.666504 10.5573 0.994339 11.6808 1.65001C12.8044 2.30568 13.694 3.19529 14.3497 4.31885C15.0053 5.4424 15.3332 6.6694 15.3332 7.99984C15.3332 9.33028 15.0053 10.5573 14.3497 11.6808C13.694 12.8044 12.8044 13.694 11.6808 14.3497C10.5573 15.0053 9.33028 15.3332 7.99984 15.3332C6.6694 15.3332 5.4424 15.0053 4.31885 14.3497C3.19529 13.694 2.30568 12.8044 1.65001 11.6808C0.994339 10.5573 0.666504 9.33028 0.666504 7.99984C0.666504 6.6694 0.994339 5.4424 1.65001 4.31885C2.30568 3.19529 3.19529 2.30568 4.31885 1.65001C5.4424 0.994339 6.6694 0.666504 7.99984 0.666504Z" fill="#328CFF"/>
<path fill-rule="evenodd" clip-rule="evenodd" d="M7.83325 0.333252C9.19393 0.333252 10.4488 0.668538 11.5979 1.33911C12.747 2.00968 13.6568 2.91952 14.3274 4.0686C14.998 5.21769 15.3333 6.47258 15.3333 7.83325C15.3333 9.19393 14.998 10.4488 14.3274 11.5979C13.6568 12.747 12.747 13.6568 11.5979 14.3274C10.4488 14.998 9.19393 15.3333 7.83325 15.3333C6.47258 15.3333 5.21769 14.998 4.0686 14.3274C2.91952 13.6568 2.00968 12.747 1.33911 11.5979C0.668538 10.4488 0.333252 9.19393 0.333252 7.83325C0.333252 6.47258 0.668538 5.21769 1.33911 4.0686C2.00968 2.91952 2.91952 2.00968 4.0686 1.33911C5.21769 0.668538 6.47258 0.333252 7.83325 0.333252ZM10.509 5.42119C10.496 5.4277 10.4651 5.45862 10.4163 5.51396C10.3701 5.56625 10.3283 5.59675 10.2909 5.60544C10.3023 5.601 10.3147 5.58515 10.3284 5.55791C10.3446 5.52536 10.3609 5.48955 10.3772 5.45049C10.3935 5.41142 10.4049 5.38864 10.4114 5.38213C10.4504 5.33655 10.5221 5.28773 10.6262 5.23564C10.7174 5.19658 10.8866 5.15752 11.134 5.11846C11.3554 5.06637 11.5214 5.10218 11.6321 5.22588C11.6191 5.21286 11.65 5.17054 11.7249 5.09892C11.7997 5.02731 11.8469 4.98825 11.8665 4.98174C11.886 4.96872 11.9348 4.95407 12.0129 4.93779C12.0911 4.92151 12.1399 4.8971 12.1594 4.86455L12.179 4.64971C12.1008 4.65622 12.0439 4.63343 12.0081 4.58135C11.9722 4.52926 11.9511 4.4609 11.9446 4.37627C11.9446 4.38929 11.925 4.41533 11.886 4.45439C11.886 4.40882 11.8713 4.38278 11.842 4.37627C11.8127 4.36976 11.7753 4.37301 11.7297 4.38603C11.6842 4.39905 11.6549 4.40231 11.6418 4.3958C11.5767 4.37627 11.5279 4.35185 11.4954 4.32256C11.4628 4.29326 11.4368 4.23955 11.4172 4.16142C11.3977 4.0833 11.3847 4.03447 11.3782 4.01494C11.3652 3.98239 11.3342 3.94658 11.2854 3.90752C11.2366 3.86846 11.2056 3.8359 11.1926 3.80986C11.1861 3.79684 11.178 3.77894 11.1682 3.75615C11.1584 3.73336 11.1487 3.71221 11.1389 3.69267C11.1292 3.67314 11.1161 3.65524 11.0999 3.63896C11.0836 3.62269 11.0657 3.61455 11.0461 3.61455C11.0266 3.61455 11.0038 3.63083 10.9778 3.66338C10.9517 3.69593 10.9273 3.72848 10.9045 3.76103C10.8818 3.79359 10.8671 3.80986 10.8606 3.80986C10.8411 3.79684 10.8215 3.79196 10.802 3.79521C10.7825 3.79847 10.7678 3.80172 10.7581 3.80498C10.7483 3.80823 10.7336 3.818 10.7141 3.83428C10.6946 3.85055 10.6783 3.86194 10.6653 3.86846C10.6458 3.88148 10.6181 3.89124 10.5823 3.89775C10.5465 3.90426 10.5188 3.91077 10.4993 3.91728C10.5969 3.88473 10.5937 3.84892 10.4895 3.80986C10.4244 3.78382 10.3723 3.77405 10.3333 3.78056C10.3918 3.75452 10.4163 3.71546 10.4065 3.66338C10.3967 3.61129 10.3691 3.56572 10.3235 3.52666H10.3723C10.3658 3.50062 10.3381 3.47295 10.2893 3.44365C10.2405 3.41435 10.1835 3.38668 10.1184 3.36064C10.0533 3.3346 10.011 3.31507 9.99146 3.30205C9.93937 3.2695 9.8287 3.23857 9.65942 3.20928C9.49015 3.17998 9.38273 3.17835 9.33716 3.20439C9.30461 3.24346 9.28996 3.27763 9.29321 3.30693C9.29647 3.33623 9.30949 3.3818 9.33228 3.44365C9.35506 3.5055 9.36646 3.54619 9.36646 3.56572C9.37297 3.60478 9.35506 3.6471 9.31274 3.69267C9.27043 3.73825 9.24927 3.77731 9.24927 3.80986C9.24927 3.85543 9.29484 3.90589 9.38599 3.96123C9.47713 4.01657 9.50968 4.08655 9.48364 4.17119C9.46411 4.22327 9.41203 4.27536 9.32739 4.32744C9.24276 4.37952 9.19067 4.41859 9.17114 4.44463C9.13859 4.49671 9.13371 4.55693 9.15649 4.62529C9.17928 4.69365 9.21346 4.74736 9.25903 4.78642C9.27205 4.79944 9.27694 4.81247 9.27368 4.82549C9.27043 4.83851 9.25903 4.85316 9.2395 4.86943C9.21997 4.88571 9.20207 4.89873 9.18579 4.90849C9.16952 4.91826 9.14836 4.92965 9.12231 4.94267L9.09302 4.96221C9.0214 4.99476 8.95467 4.97523 8.89282 4.90361C8.83097 4.832 8.78703 4.74736 8.76099 4.64971C8.71541 4.48694 8.66333 4.38929 8.60474 4.35674C8.455 4.30465 8.3606 4.30791 8.32153 4.3665C8.28898 4.28187 8.15552 4.19723 7.92114 4.1126C7.75838 4.054 7.56958 4.04098 7.35474 4.07353C7.3938 4.06702 7.3938 4.01819 7.35474 3.92705C7.30916 3.82939 7.24731 3.79033 7.16919 3.80986C7.18872 3.7708 7.20174 3.71383 7.20825 3.63896C7.21476 3.56409 7.21802 3.52015 7.21802 3.50713C7.23755 3.42249 7.27661 3.34762 7.33521 3.28252C7.34172 3.27601 7.3645 3.24834 7.40356 3.19951C7.44263 3.15068 7.47355 3.10674 7.49634 3.06767C7.51912 3.02861 7.52075 3.00908 7.50122 3.00908C7.72909 3.03512 7.89185 2.99931 7.9895 2.90166C8.02205 2.86911 8.05949 2.81377 8.10181 2.73564C8.14412 2.65752 8.1783 2.60218 8.20435 2.56963C8.26294 2.53056 8.30851 2.51266 8.34106 2.51592C8.37362 2.51917 8.42082 2.53708 8.48267 2.56963C8.54452 2.60218 8.59172 2.61846 8.62427 2.61846C8.71541 2.62497 8.76587 2.58916 8.77563 2.51103C8.7854 2.43291 8.76099 2.3678 8.70239 2.31572C8.78052 2.32223 8.79028 2.26689 8.73169 2.14971C8.70565 2.10413 8.67961 2.07484 8.65356 2.06181C8.57544 2.03577 8.48755 2.05205 8.38989 2.11064C8.33833 2.13642 8.3442 2.16221 8.40749 2.18799C8.39802 2.18775 8.36774 2.22219 8.31665 2.29131C8.26131 2.36618 8.2076 2.42314 8.15552 2.46221C8.10343 2.50127 8.05135 2.48499 7.99927 2.41338C7.99276 2.40687 7.97485 2.36292 7.94556 2.28154C7.91626 2.20016 7.88534 2.15622 7.85278 2.14971C7.8007 2.14971 7.74862 2.19853 7.69653 2.29619C7.71606 2.24411 7.68026 2.19528 7.58911 2.14971C7.49797 2.10413 7.41984 2.07809 7.35474 2.07158C7.47843 1.99346 7.45239 1.90556 7.27661 1.80791C7.23104 1.78187 7.16431 1.76559 7.07642 1.75908C6.98853 1.75257 6.92505 1.76559 6.88599 1.79814C6.85343 1.84372 6.83553 1.88115 6.83228 1.91045C6.82902 1.93974 6.8453 1.96579 6.8811 1.98857C6.91691 2.01136 6.95109 2.02926 6.98364 2.04228C7.01619 2.0553 7.05363 2.06832 7.09595 2.08135C7.13827 2.09437 7.16593 2.10413 7.17896 2.11064C7.2701 2.17575 7.29614 2.22132 7.25708 2.24736C7.24406 2.25387 7.21639 2.26526 7.17407 2.28154C7.13175 2.29782 7.09432 2.31247 7.06177 2.32549C7.02922 2.33851 7.00968 2.35153 7.00317 2.36455C6.98364 2.39059 6.98364 2.43616 7.00317 2.50127C7.02271 2.56637 7.01619 2.61194 6.98364 2.63799C6.95109 2.60543 6.92179 2.54847 6.89575 2.46709C6.86971 2.38571 6.84692 2.332 6.82739 2.30596C6.87297 2.36455 6.79159 2.38408 6.58325 2.36455L6.4856 2.35478C6.45955 2.35478 6.40747 2.36129 6.32935 2.37431C6.25122 2.38734 6.18449 2.39059 6.12915 2.38408C6.07381 2.37757 6.02987 2.35153 5.99731 2.30596C5.97127 2.25387 5.97127 2.18877 5.99731 2.11064C6.00383 2.0846 6.01685 2.07809 6.03638 2.09111C6.01034 2.07158 5.97453 2.04066 5.92896 1.99834C5.88338 1.95602 5.85083 1.92835 5.8313 1.91533C5.53182 2.01299 5.22583 2.14645 4.91333 2.31572C4.95239 2.32223 4.99146 2.31898 5.03052 2.30596C5.06307 2.29293 5.10539 2.27178 5.15747 2.24248C5.20955 2.21318 5.24211 2.19528 5.25513 2.18877C5.47648 2.09762 5.6132 2.07484 5.66528 2.12041L5.71411 2.07158C5.80526 2.17575 5.87036 2.25713 5.90942 2.31572C5.86385 2.28968 5.76619 2.28642 5.61646 2.30596C5.48625 2.34502 5.41463 2.38408 5.40161 2.42314C5.44718 2.50127 5.46346 2.55986 5.45044 2.59892C5.4244 2.57939 5.38696 2.54684 5.33813 2.50127C5.28931 2.45569 5.24211 2.41989 5.19653 2.39385C5.15096 2.3678 5.10213 2.35153 5.05005 2.34502C4.94588 2.34502 4.87427 2.34827 4.83521 2.35478C3.88468 2.87562 3.11971 3.59827 2.54028 4.52275C2.58586 4.56833 2.62492 4.59437 2.65747 4.60088C2.68351 4.60739 2.69979 4.63668 2.7063 4.68877C2.71281 4.74085 2.72095 4.77666 2.73071 4.79619C2.74048 4.81572 2.77791 4.80596 2.84302 4.76689C2.90161 4.81898 2.91138 4.88083 2.87231 4.95244C2.87882 4.94593 3.02205 5.03382 3.302 5.21611C3.4257 5.32679 3.49406 5.39515 3.50708 5.42119C3.52661 5.4928 3.49406 5.5514 3.40942 5.59697C3.40291 5.58395 3.37362 5.55465 3.32153 5.50908C3.26945 5.46351 3.24015 5.45049 3.23364 5.47002C3.21411 5.50257 3.21574 5.56279 3.23853 5.65068C3.25982 5.73284 3.29108 5.77375 3.33229 5.77342C3.2915 5.77981 3.2635 5.83167 3.24829 5.929C3.23201 6.03317 3.22388 6.14873 3.22388 6.27568C3.22388 6.40264 3.22062 6.47913 3.21411 6.50517L3.23364 6.51494C3.21411 6.59306 3.23201 6.70537 3.28735 6.85185C3.34269 6.99834 3.41268 7.06181 3.49731 7.04228C3.41268 7.06181 3.47778 7.20179 3.69263 7.46221C3.73169 7.51429 3.75773 7.54359 3.77075 7.5501C3.79028 7.56312 3.82935 7.58753 3.88794 7.62334C3.94653 7.65915 3.99536 7.6917 4.03442 7.72099C4.07349 7.75029 4.10604 7.78447 4.13208 7.82353C4.15812 7.85609 4.19067 7.92933 4.22974 8.04326C4.2688 8.15719 4.31437 8.23369 4.36646 8.27275C4.35343 8.31181 4.38436 8.37692 4.45923 8.46807C4.5341 8.55921 4.56828 8.63408 4.56177 8.69267C4.55526 8.69267 4.54712 8.69593 4.53735 8.70244C4.52759 8.70895 4.51945 8.71221 4.51294 8.71221C4.53247 8.75778 4.58293 8.80335 4.66431 8.84892C4.74569 8.8945 4.79614 8.93682 4.81567 8.97588C4.82218 8.99541 4.82869 9.02796 4.83521 9.07353C4.84172 9.11911 4.85148 9.15491 4.8645 9.18096C4.87752 9.207 4.90356 9.21351 4.94263 9.20049C4.95565 9.07028 4.87752 8.86846 4.70825 8.59502C4.6106 8.43226 4.55526 8.33786 4.54224 8.31181C4.52271 8.27926 4.5048 8.22881 4.48853 8.16045C4.47225 8.09209 4.4576 8.04489 4.44458 8.01885C4.4576 8.01885 4.47713 8.02373 4.50317 8.03349C4.52922 8.04326 4.55688 8.05465 4.58618 8.06767C4.61548 8.0807 4.63989 8.09372 4.65942 8.10674C4.67896 8.11976 4.68547 8.12952 4.67896 8.13603C4.65942 8.18161 4.66593 8.23857 4.69849 8.30693C4.73104 8.37529 4.7701 8.43551 4.81567 8.4876C4.86125 8.53968 4.91659 8.60153 4.98169 8.67314C5.04679 8.74476 5.08586 8.78708 5.09888 8.8001C5.13794 8.83916 5.18351 8.90264 5.2356 8.99053C5.28768 9.07842 5.28768 9.12236 5.2356 9.12236C5.29419 9.12236 5.35929 9.15654 5.43091 9.2249C5.50252 9.29326 5.55786 9.35674 5.59692 9.41533C5.62948 9.46741 5.65552 9.55205 5.67505 9.66924C5.69458 9.78642 5.71086 9.86455 5.72388 9.90361C5.7369 9.94919 5.76457 9.99313 5.80688 10.0354C5.8492 10.0778 5.88989 10.1087 5.92896 10.1282L6.08521 10.2063L6.21216 10.2747C6.24471 10.2877 6.30493 10.3219 6.39282 10.3772C6.48071 10.4326 6.5507 10.47 6.60278 10.4895C6.66789 10.5156 6.71997 10.5286 6.75903 10.5286C6.7981 10.5286 6.8453 10.5205 6.90063 10.5042C6.95597 10.4879 6.99992 10.4765 7.03247 10.47C7.13013 10.457 7.22453 10.5058 7.31567 10.6165C7.40682 10.7272 7.47518 10.7955 7.52075 10.8216C7.75513 10.9453 7.93416 10.9811 8.05786 10.929C8.04484 10.9355 8.04647 10.9599 8.06274 11.0022C8.07902 11.0446 8.10506 11.095 8.14087 11.1536C8.17668 11.2122 8.20597 11.2594 8.22876 11.2952C8.25155 11.331 8.26945 11.3587 8.28247 11.3782C8.31502 11.4173 8.37362 11.4661 8.45825 11.5247C8.54289 11.5833 8.60148 11.6321 8.63403 11.6712C8.66664 11.6495 8.68791 11.6254 8.69783 11.5992C8.68779 11.6484 8.7121 11.7082 8.77075 11.7786C8.83586 11.8567 8.89445 11.8893 8.94653 11.8763C9.03768 11.8567 9.08325 11.7526 9.08325 11.5638C8.88143 11.6614 8.72192 11.6028 8.60474 11.388C8.60474 11.3815 8.5966 11.3636 8.58032 11.3343C8.56405 11.305 8.55103 11.2773 8.54126 11.2513C8.53149 11.2252 8.52336 11.1976 8.51685 11.1683C8.51034 11.139 8.51034 11.1145 8.51685 11.095C8.52336 11.0755 8.53963 11.0657 8.56567 11.0657C8.62427 11.0657 8.65682 11.0543 8.66333 11.0315C8.66984 11.0088 8.66333 10.9681 8.6438 10.9095C8.62427 10.8509 8.61125 10.8086 8.60474 10.7825C8.59823 10.7304 8.56242 10.6653 8.49731 10.5872C8.43221 10.5091 8.39315 10.4603 8.38013 10.4407C8.34758 10.4993 8.29549 10.5254 8.22388 10.5188C8.15226 10.5123 8.10018 10.483 8.06763 10.431C8.06763 10.4375 8.06274 10.4554 8.05298 10.4847C8.04321 10.514 8.03833 10.5351 8.03833 10.5481C7.95369 10.5481 7.90487 10.5449 7.89185 10.5384C7.89836 10.5188 7.90649 10.4619 7.91626 10.3675C7.92603 10.2731 7.93742 10.1998 7.95044 10.1478C7.95695 10.1217 7.97485 10.0826 8.00415 10.0306C8.03345 9.97848 8.05786 9.93128 8.07739 9.88896C8.09692 9.84665 8.10994 9.80596 8.11646 9.76689C8.12297 9.72783 8.10832 9.69691 8.07251 9.67412C8.0367 9.65133 7.97974 9.6432 7.90161 9.64971C7.77791 9.65622 7.69328 9.72132 7.64771 9.84502C7.64119 9.86455 7.63143 9.89873 7.61841 9.94756C7.60539 9.99639 7.58911 10.0338 7.56958 10.0599C7.55005 10.0859 7.52075 10.1087 7.48169 10.1282C7.43612 10.1478 7.35799 10.1543 7.24731 10.1478C7.13664 10.1412 7.05851 10.125 7.01294 10.0989C6.9283 10.0468 6.85506 9.95244 6.79321 9.81572C6.73136 9.679 6.70044 9.55856 6.70044 9.45439C6.70044 9.38929 6.70858 9.30303 6.72485 9.1956C6.74113 9.08818 6.7509 9.0068 6.75415 8.95146C6.75741 8.89612 6.7395 8.81637 6.70044 8.71221C6.71997 8.69918 6.74927 8.66826 6.78833 8.61943C6.82739 8.5706 6.85994 8.53642 6.88599 8.51689C6.89901 8.51038 6.91366 8.5055 6.92993 8.50224C6.94621 8.49899 6.96086 8.49899 6.97388 8.50224C6.9869 8.5055 6.99992 8.50062 7.01294 8.4876C7.02596 8.47458 7.03573 8.45504 7.04224 8.429C7.03573 8.42249 7.02271 8.41273 7.00317 8.39971C6.99012 8.38665 6.97998 8.37796 6.97274 8.37363C7.02088 8.38927 7.11078 8.38332 7.24243 8.35576C7.38241 8.32646 7.47192 8.33135 7.51099 8.37041C7.60864 8.44202 7.68026 8.43551 7.72583 8.35088C7.72583 8.34437 7.71769 8.31344 7.70142 8.2581C7.68514 8.20277 7.68351 8.15882 7.69653 8.12627C7.72909 8.30205 7.82349 8.33135 7.97974 8.21416C7.99927 8.23369 8.04972 8.24997 8.1311 8.26299C8.21248 8.27601 8.26945 8.29228 8.302 8.31181C8.32153 8.32484 8.34432 8.34274 8.37036 8.36553C8.3964 8.38831 8.41431 8.40296 8.42407 8.40947C8.43384 8.41598 8.45011 8.41435 8.4729 8.40459C8.49569 8.39482 8.52336 8.37366 8.55591 8.34111C8.62101 8.43226 8.66008 8.51038 8.6731 8.57549C8.74471 8.8359 8.80656 8.97913 8.85864 9.00517C8.90422 9.02471 8.94002 9.03122 8.96606 9.02471C8.99211 9.0182 9.00675 8.98727 9.01001 8.93193C9.01327 8.87659 9.01327 8.83102 9.01001 8.79521C9.00675 8.75941 9.00187 8.71872 8.99536 8.67314L8.9856 8.59502V8.41924L8.97583 8.34111C8.87817 8.32158 8.81795 8.28252 8.79517 8.22392C8.77238 8.16533 8.77726 8.10511 8.80981 8.04326C8.84237 7.98141 8.8912 7.92119 8.9563 7.8626C8.96281 7.85609 8.98885 7.84469 9.03442 7.82842C9.08 7.81214 9.13045 7.79098 9.18579 7.76494C9.24113 7.7389 9.28182 7.71286 9.30786 7.68681C9.44458 7.56312 9.49341 7.44918 9.45435 7.34502C9.49992 7.34502 9.53573 7.31572 9.56177 7.25713C9.55526 7.25713 9.53898 7.24736 9.51294 7.22783C9.4869 7.2083 9.46248 7.19202 9.4397 7.179C9.41691 7.16598 9.40226 7.15947 9.39575 7.15947C9.45435 7.12692 9.46086 7.07484 9.41528 7.00322C9.44784 6.98369 9.47225 6.94788 9.48853 6.8958C9.5048 6.84372 9.52922 6.81116 9.56177 6.79814C9.62036 6.87627 9.68872 6.88278 9.76685 6.81767C9.81893 6.76559 9.82218 6.71351 9.77661 6.66142C9.80916 6.61585 9.8759 6.58167 9.97681 6.55889C10.0777 6.5361 10.1379 6.50517 10.1575 6.46611C10.203 6.47913 10.2291 6.47262 10.2356 6.44658C10.2421 6.42054 10.2454 6.38148 10.2454 6.32939C10.2454 6.27731 10.2551 6.23825 10.2747 6.21221C10.3007 6.17965 10.3495 6.15036 10.4211 6.12431C10.4928 6.09827 10.5351 6.082 10.5481 6.07549L10.7141 5.96806C10.731 5.94552 10.7333 5.93273 10.7209 5.92971C10.8352 5.94061 10.9339 5.90457 11.0168 5.82158C11.082 5.74997 11.0624 5.68486 10.9583 5.62627C10.9778 5.58721 10.968 5.55628 10.929 5.53349C10.8899 5.51071 10.8411 5.4928 10.7825 5.47978C10.802 5.47327 10.8394 5.47165 10.8948 5.4749C10.9501 5.47816 10.9843 5.47327 10.9973 5.46025C11.095 5.39515 11.0722 5.34306 10.929 5.304C10.8183 5.27145 10.6783 5.31051 10.509 5.42119ZM8.40942 2.18877C8.40877 2.18851 8.40813 2.18825 8.40749 2.18799L8.40942 2.18877ZM12.3449 12.14C11.4009 13.1361 10.2583 13.7514 8.9172 13.9857C8.90418 13.9206 8.89767 13.8685 8.89767 13.8295C8.89116 13.7774 8.91395 13.7074 8.96603 13.6195C9.01811 13.5316 9.04416 13.4649 9.04416 13.4193C8.93999 13.3933 8.90093 13.3086 8.92697 13.1654C8.93999 13.0678 9.03439 12.9375 9.21017 12.7748C9.33387 12.6641 9.37293 12.5079 9.32736 12.306C9.30783 12.2214 9.29155 12.0977 9.27853 11.9349C9.26597 11.7779 9.25341 11.6663 9.24084 11.6002C9.24746 11.617 9.27793 11.6326 9.33224 11.6469C9.39409 11.6631 9.43152 11.6843 9.44455 11.7103C9.45757 11.6908 9.47384 11.655 9.49337 11.6029C9.51291 11.5508 9.53244 11.5118 9.55197 11.4857C9.56499 11.4662 9.59266 11.4418 9.63498 11.4125C9.67729 11.3832 9.70496 11.3653 9.71798 11.3588C9.731 11.3523 9.7603 11.3311 9.80587 11.2953C9.85145 11.2595 9.88888 11.2318 9.91818 11.2123C9.94748 11.1928 9.98654 11.1781 10.0354 11.1683C10.0842 11.1586 10.1184 11.1732 10.1379 11.2123C10.1705 11.2514 10.1639 11.3116 10.1184 11.393C10.0728 11.4743 10.0728 11.5313 10.1184 11.5639C10.1249 11.5443 10.1314 11.502 10.1379 11.4369C10.1444 11.3718 10.1639 11.323 10.1965 11.2904C10.2356 11.2514 10.273 11.2286 10.3088 11.2221C10.3446 11.2155 10.3772 11.2204 10.4065 11.2367C10.4358 11.253 10.4699 11.2758 10.509 11.3051C10.5481 11.3344 10.5839 11.3523 10.6164 11.3588C10.7141 11.3913 10.8313 11.4629 10.968 11.5736C10.9615 11.5671 10.9615 11.559 10.968 11.5492C10.9745 11.5394 10.9875 11.5297 11.007 11.5199C11.0266 11.5101 11.0445 11.5004 11.0608 11.4906C11.077 11.4808 11.0949 11.4727 11.1145 11.4662L11.1438 11.4564C11.1893 11.4564 11.2219 11.4532 11.2414 11.4467C11.261 11.4402 11.2886 11.4467 11.3244 11.4662C11.3602 11.4857 11.3846 11.5004 11.3977 11.5101C11.4107 11.5199 11.4335 11.5378 11.466 11.5639C11.4986 11.5899 11.5214 11.6094 11.5344 11.6224C11.5539 11.6355 11.5897 11.6583 11.6418 11.6908C11.6939 11.7234 11.7346 11.7494 11.7639 11.7689C11.7932 11.7885 11.8192 11.8178 11.842 11.8568C11.8648 11.8959 11.8729 11.9382 11.8664 11.9838C11.9055 11.9903 11.9836 12.0163 12.1008 12.0619C12.1203 12.0749 12.161 12.0863 12.2229 12.0961C12.2847 12.1058 12.3254 12.1205 12.3449 12.14ZM9.23947 11.5931C9.23993 11.5954 9.24039 11.5978 9.24084 11.6002C9.23993 11.5979 9.23947 11.5955 9.23947 11.5931Z" fill="white"/>
</g>
<defs>
<clipPath id="clip0_0_3071">
<rect width="16" height="16" fill="white"/>
</clipPath>
</defs>
</svg>
