<svg width="18" height="18" viewBox="0 0 18 18" fill="none" xmlns="http://www.w3.org/2000/svg">
<g clip-path="url(#clip0_0_184)">
<path d="M13 3.55274C13 2.86238 12.4404 2.30273 11.75 2.30273H1.24997C0.559617 2.30273 -2.63453e-05 2.86238 -2.63453e-05 3.55273V3.68431C-2.63453e-05 4.37466 0.559618 4.93431 1.24997 4.93431H11.75C12.4404 4.93431 13 4.37466 13 3.68431V3.55274Z" fill="#BCD7F8"/>
<path d="M13 8.81592C13 8.12556 12.4404 7.56592 11.75 7.56592H1.24997C0.559617 7.56592 -2.63453e-05 8.12556 -2.63453e-05 8.81592V8.94749C-2.63453e-05 9.63785 0.559618 10.1975 1.24997 10.1975H11.75C12.4404 10.1975 13 9.63785 13 8.94749V8.81592Z" fill="#BCD7F8"/>
<path d="M18 14.0791C18 13.3887 17.4404 12.8291 16.75 12.8291H1.24996C0.559607 12.8291 -3.43323e-05 13.3887 -3.43323e-05 14.0791V14.2107C-3.43323e-05 14.901 0.55961 15.4607 1.24997 15.4607H16.75C17.4404 15.4607 18 14.901 18 14.2107V14.0791Z" fill="#BCD7F8"/>
</g>
<defs>
<clipPath id="clip0_0_184">
<rect width="18" height="18" fill="white"/>
</clipPath>
</defs>
</svg>
