<svg width="16" height="16" viewBox="0 0 16 16" fill="none" xmlns="http://www.w3.org/2000/svg">
<g clip-path="url(#clip0_0_3062)">
<path d="M13.6839 0.113281H1.91599C0.982966 0.113281 0.234863 0.835824 0.234863 1.71893V12.31C0.234863 13.1931 0.982966 13.9157 1.91599 13.9157H5.27825L7.79994 15.9999L10.3216 13.9157H13.6839C14.6085 13.9157 15.365 13.1931 15.365 12.31V1.71893C15.365 0.835824 14.6085 0.113281 13.6839 0.113281Z" fill="#328CFF"/>
<path fill-rule="evenodd" clip-rule="evenodd" d="M13.6839 0.113281H1.91599C0.982966 0.113281 0.234863 0.835824 0.234863 1.71893V12.31C0.234863 13.1931 0.982966 13.9157 1.91599 13.9157H5.27825L7.79994 15.9999L10.3216 13.9157H13.6839C14.6085 13.9157 15.365 13.1931 15.365 12.31V1.71893C15.365 0.835824 14.6085 0.113281 13.6839 0.113281ZM8.48769 12.4335H7.11223V11.1366H8.48769V12.4335ZM9.29237 7.35628L9.91133 6.75972C10.3033 6.39011 10.5509 5.87136 10.5509 5.30074C10.5509 3.8677 9.31988 2.707 7.79999 2.707C6.2801 2.707 5.04905 3.8677 5.04905 5.30074H6.42452C6.42452 4.58746 7.04348 4.00387 7.79999 4.00387C8.5565 4.00387 9.17546 4.58746 9.17546 5.30074C9.17546 5.65738 9.02416 5.9816 8.7697 6.21503L7.9169 7.03206C7.42174 7.50542 7.11226 8.15385 7.11226 8.86713V9.19135H8.48772C8.48772 8.2187 8.7972 7.82964 9.29237 7.35628Z" fill="white"/>
</g>
<defs>
<clipPath id="clip0_0_3062">
<rect width="16" height="16" fill="white"/>
</clipPath>
</defs>
</svg>
