<svg width="14" height="14" viewBox="0 0 14 14" fill="none" xmlns="http://www.w3.org/2000/svg">
<g clip-path="url(#clip0_0_1261)">
<path fill-rule="evenodd" clip-rule="evenodd" d="M12.1617 2.75769H6.5053C6.07639 2.75769 5.72766 2.40896 5.72682 1.98005C5.72682 1.2389 6.32966 0.636475 7.07039 0.636475H11.5958C12.3369 0.636475 12.9394 1.23932 12.9394 1.98005C12.9394 2.40896 12.5906 2.75769 12.1617 2.75769ZM0.636688 5.02011C0.636688 3.88272 1.53226 1.69702 2.7579 1.69702C3.98354 1.69702 4.87911 3.88272 4.87911 5.02011C4.87911 5.92969 4.3399 6.71072 3.57499 7.04205L3.81851 12.3578C3.81851 12.917 3.34251 13.3637 2.7579 13.3637C2.17329 13.3637 1.69729 12.9165 1.69729 12.3676L1.94081 7.04205C1.1759 6.71072 0.636688 5.92926 0.636688 5.02011ZM12.8376 3.95105L12.7358 3.82718C12.6153 3.68039 12.5126 3.50518 12.4303 3.30578C12.3959 3.22305 12.3085 3.17002 12.2233 3.17469C12.2059 3.17554 12.1893 3.17766 12.1618 3.1819L6.49472 3.18021C6.48836 3.17936 6.45018 3.17512 6.44381 3.17469C6.35006 3.16875 6.27115 3.22263 6.23678 3.30578C6.15448 3.50518 6.05181 3.68081 5.93133 3.82718L5.82951 3.95063C5.49012 4.36342 5.30303 4.88184 5.30303 5.41045V12.091C5.30303 12.7927 5.88763 13.3637 6.60587 13.3637H12.0604C12.7786 13.3637 13.3632 12.7927 13.3632 12.091V5.41087C13.3641 4.88184 13.1774 4.36342 12.8376 3.95105ZM11.8791 9.97007C11.9962 9.97007 12.0912 9.87504 12.0912 9.75795V6.36401C12.0912 6.24692 11.9962 6.15189 11.8791 6.15189H6.78816C6.67107 6.15189 6.57604 6.24692 6.57604 6.36401V9.75795C6.57604 9.87504 6.67107 9.97007 6.78816 9.97007H11.8791Z" fill="#33344F"/>
</g>
<defs>
<clipPath id="clip0_0_1261">
<rect width="14" height="14" fill="white"/>
</clipPath>
</defs>
</svg>
