<svg width="24" height="24" viewBox="0 0 24 24" fill="none" xmlns="http://www.w3.org/2000/svg">
<g clip-path="url(#clip0_0_3017)">
<path d="M23.4095 9.88143C23.1665 8.84426 22.206 8.22197 21.2803 8.50719L15.1357 10.3481L7.69136 2.57598C7.35959 2.2296 6.86216 2.09751 6.40226 2.23367C5.63161 2.46182 5.25882 3.3349 5.62702 4.04931L9.7085 11.9687L3.95731 13.693L2.09386 12.061C1.83494 11.8342 1.47749 11.7568 1.14795 11.8561C0.550593 12.0361 0.262786 12.7137 0.548027 13.2686L2.10582 16.2989L2.99685 18.0231L4.84834 17.4657L10.993 15.6247L16.0267 14.1208L22.1713 12.2799C23.1086 11.9817 23.6525 10.9186 23.4095 9.88143Z" fill="#328CFF"/>
<path fill-rule="evenodd" clip-rule="evenodd" d="M21.8129 7.21592C22.7387 6.9307 23.6991 7.55299 23.9422 8.59015C24.1852 9.62732 23.6413 10.6904 22.704 10.9886L16.5593 12.8296L11.5256 14.3334L5.38098 16.1744L3.5295 16.7319L2.63847 15.0076L1.08067 11.9773C0.795429 11.4225 1.08324 10.7448 1.68059 10.5648C2.01013 10.4655 2.36759 10.5429 2.62651 10.7697L4.48996 12.4017L10.2411 10.6774L6.15966 2.75804C5.79147 2.04363 6.16426 1.17055 6.9349 0.942398C7.3948 0.806243 7.89223 0.938333 8.224 1.28471L15.6683 9.05688L21.8129 7.21592ZM2.6623 19.6487C1.94654 19.6487 1.3663 20.2294 1.3663 20.9451C1.3663 21.6609 1.94654 22.2416 2.6623 22.2416H21.9221C22.6378 22.2416 23.2181 21.6609 23.2181 20.9451C23.2181 20.2294 22.6378 19.6487 21.9221 19.6487H2.6623Z" fill="white"/>
</g>
<defs>
<clipPath id="clip0_0_3017">
<rect width="24" height="24" fill="white"/>
</clipPath>
</defs>
</svg>
