<svg width="16" height="16" viewBox="0 0 16 16" fill="none" xmlns="http://www.w3.org/2000/svg">
<g clip-path="url(#clip0_0_3088)">
<path opacity="0.3" d="M11.396 0.333252H13.6292C14.9384 0.333252 15.9998 1.38538 15.9998 2.68325V13.6499C15.9998 14.9478 14.9384 15.9999 13.6292 15.9999H11.396V0.333252Z" fill="#328CFF"/>
<path d="M1.12346 0.333252H10.6059C11.9152 0.333252 12.9765 1.38538 12.9765 2.68325V13.6499C12.9765 14.9478 11.9152 15.9999 10.6059 15.9999H1.12346C0.687039 15.9999 0.333252 15.6492 0.333252 15.2166V1.11659C0.333252 0.683962 0.687039 0.333252 1.12346 0.333252Z" fill="#328CFF"/>
<path fill-rule="evenodd" clip-rule="evenodd" d="M1.12346 0.333252H11.2587C12.5679 0.333252 13.6293 1.38538 13.6293 2.68325V13.6499C13.6293 14.9478 12.5679 15.9999 11.2587 15.9999H1.12346C0.687039 15.9999 0.333252 15.6492 0.333252 15.2166V1.11659C0.333252 0.683962 0.687039 0.333252 1.12346 0.333252ZM6.74424 7.38325C7.61708 7.38325 8.32465 6.68183 8.32465 5.81659C8.32465 4.95134 7.61708 4.24992 6.74424 4.24992C5.8714 4.24992 5.16383 4.95134 5.16383 5.81659C5.16383 6.68183 5.8714 7.38325 6.74424 7.38325ZM3.26373 12.0833C3.15363 12.0833 2.93537 11.8185 2.94464 11.6912C3.1148 9.35457 4.81534 8.16659 6.88806 8.16659C8.98995 8.16659 10.7168 9.28929 10.8455 11.6916C10.8506 11.7873 10.8455 12.0833 10.5157 12.0833H3.26373Z" fill="white"/>
</g>
<defs>
<clipPath id="clip0_0_3088">
<rect width="16" height="16" fill="white"/>
</clipPath>
</defs>
</svg>
