<svg width="18" height="18" viewBox="0 0 18 18" fill="none" xmlns="http://www.w3.org/2000/svg">
<g opacity="0.8" clip-path="url(#clip0_0_3114)">
<path d="M5 3.55274C5 2.86238 5.55964 2.30273 6.25 2.30273H16.75C17.4403 2.30273 18 2.86238 18 3.55273V3.68431C18 4.37466 17.4403 4.93431 16.75 4.93431H6.25C5.55964 4.93431 5 4.37466 5 3.68431V3.55274Z" fill="white"/>
<path d="M5 8.81592C5 8.12556 5.55964 7.56592 6.25 7.56592H16.75C17.4403 7.56592 18 8.12556 18 8.81592V8.94749C18 9.63785 17.4403 10.1975 16.75 10.1975H6.25C5.55964 10.1975 5 9.63785 5 8.94749V8.81592Z" fill="white"/>
<path d="M0 14.0791C0 13.3887 0.559644 12.8291 1.25 12.8291H16.75C17.4403 12.8291 18 13.3887 18 14.0791V14.2107C18 14.901 17.4403 15.4607 16.75 15.4607H1.25C0.559645 15.4607 0 14.901 0 14.2107V14.0791Z" fill="white"/>
</g>
<defs>
<clipPath id="clip0_0_3114">
<rect width="18" height="18" fill="white"/>
</clipPath>
</defs>
</svg>
