<svg width="16" height="16" viewBox="0 0 16 16" fill="none" xmlns="http://www.w3.org/2000/svg">
<g clip-path="url(#clip0_0_3099)">
<path d="M1.62505 1.72046H14.4028C15.2849 1.72046 16 2.48664 16 3.43177V14.3841C16 15.3293 15.2849 16.0954 14.4028 16.0954H1.62505C0.742932 16.0954 0.027832 15.3293 0.027832 14.3841V3.43177C0.027832 2.48664 0.742932 1.72046 1.62505 1.72046Z" fill="white"/>
<path d="M12.79 7.63208H2.40812C1.74653 7.63208 1.21021 8.20671 1.21021 8.91556V10.0279H4.87246C5.08426 10.0279 5.28739 10.1181 5.43716 10.2785L6.23577 11.1342C6.59734 11.5216 7.08774 11.7392 7.59908 11.7392C8.11042 11.7392 8.60082 11.5216 8.9624 11.1342L9.76101 10.2785C9.91077 10.1181 10.1139 10.0279 10.3257 10.0279H13.988V8.91556C13.988 8.20671 13.4516 7.63208 12.79 7.63208Z" fill="#328CFF"/>
<path d="M2.82291 0.0090332C2.16132 0.0090332 1.625 0.583667 1.625 1.29251V5.14295H14.4028V1.29251C14.4028 0.583667 13.8664 0.0090332 13.2048 0.0090332H2.82291Z" fill="#328CFF"/>
<path d="M1.75513 3.43164C0.957445 3.43164 0.310791 4.00627 0.310791 4.71512V7.19652H15.7171V4.71512C15.7171 4.00627 15.0705 3.43164 14.2728 3.43164H1.75513Z" fill="white"/>
</g>
<defs>
<clipPath id="clip0_0_3099">
<rect width="16" height="16" fill="white"/>
</clipPath>
</defs>
</svg>
