<svg width="12" height="12" viewBox="0 0 12 12" fill="none" xmlns="http://www.w3.org/2000/svg">
<g clip-path="url(#clip0_0_2849)">
<g clip-path="url(#clip1_0_2849)">
<path fill-rule="evenodd" clip-rule="evenodd" d="M10.8001 1.2C11.1315 1.2 11.4001 1.46863 11.4001 1.8V3.006H0.600098V1.8C0.600098 1.46863 0.868727 1.2 1.2001 1.2H3.0001V0H4.2001V1.2H7.8001V0H9.0001V1.2H10.8001ZM10.8001 12H1.2001C0.868727 12 0.600098 11.7314 0.600098 11.4V4.206H11.4001V11.4C11.4001 11.7314 11.1315 12 10.8001 12ZM9.0001 6H7.8001V7.2H9.0001V6ZM7.8001 8.4H9.0001V9.6H7.8001V8.4ZM6.6001 6H5.4001V7.2H6.6001V6ZM5.4001 8.4H6.6001V9.6H5.4001V8.4ZM4.2001 6H3.0001V7.2H4.2001V6ZM3.0001 8.4H4.2001V9.6H3.0001V8.4Z" fill="#C2C6D2"/>
</g>
</g>
<defs>
<clipPath id="clip0_0_2849">
<rect width="12" height="12" fill="white"/>
</clipPath>
<clipPath id="clip1_0_2849">
<rect width="12" height="12" fill="white"/>
</clipPath>
</defs>
</svg>
