<svg width="16" height="16" viewBox="0 0 16 16" fill="none" xmlns="http://www.w3.org/2000/svg">
<g clip-path="url(#clip0_0_3080)">
<path d="M6.54367 6.44505V5.80933H1.03766L1.02979 12.6433C1.02979 13.349 1.73084 13.9147 2.60518 13.9147H13.633C14.5073 13.9147 15.2084 13.349 15.2084 12.6433V5.80933H9.69447V6.44505H6.54367Z" fill="#328CFF"/>
<path d="M14.4207 3.31434H11.9237V1.77045L10.3483 0.226562H5.8742L4.30668 1.77045V3.31434H1.82149C0.951084 3.31434 0.246094 4.00523 0.246094 4.85823V7.83573C0.246094 8.68873 0.951084 9.37962 1.82149 9.37962H6.54768V7.83573H9.69848V9.37962H14.4247C15.2951 9.37962 16.0001 8.68873 16.0001 7.83573V4.85823C15.9961 4.00523 15.2911 3.31434 14.4207 3.31434Z" fill="white"/>
<path d="M6.54367 11.5852V10.8132H1.03766L1.02979 14.5627C1.02979 15.4195 1.73084 16.1066 2.60518 16.1066H13.633C14.5073 16.1066 15.2084 15.4195 15.2084 14.5627V10.8132H9.69447V11.5852H6.54367Z" fill="white"/>
<path d="M9.69059 3.3144H6.53979V1.77051H9.69059V3.3144Z" fill="#328CFF"/>
</g>
<defs>
<clipPath id="clip0_0_3080">
<rect width="16" height="16" fill="white"/>
</clipPath>
</defs>
</svg>
