<svg width="92" height="92" viewBox="0 0 92 92" fill="none" xmlns="http://www.w3.org/2000/svg">
<g filter="url(#filter0_d_0_474)">
<rect x="16" y="14" width="52" height="52" rx="26" fill="#E5E6EB"/>
</g>
<g filter="url(#filter1_b_0_474)">
<path fill-rule="evenodd" clip-rule="evenodd" d="M42 66C56.3594 66 68 54.3594 68 40C68 25.6406 56.3594 14 42 14C27.6406 14 16 25.6406 16 40C16 54.3594 27.6406 66 42 66Z" fill="black" fill-opacity="0.01"/>
</g>
<path fill-rule="evenodd" clip-rule="evenodd" d="M42 66C56.3594 66 68 54.3594 68 40C68 25.6406 56.3594 14 42 14C27.6406 14 16 25.6406 16 40C16 54.3594 27.6406 66 42 66Z" fill="white"/>
<defs>
<filter id="filter0_d_0_474" x="0" y="0" width="92" height="92" filterUnits="userSpaceOnUse" color-interpolation-filters="sRGB">
<feFlood flood-opacity="0" result="BackgroundImageFix"/>
<feColorMatrix in="SourceAlpha" type="matrix" values="0 0 0 0 0 0 0 0 0 0 0 0 0 0 0 0 0 0 127 0" result="hardAlpha"/>
<feOffset dx="4" dy="6"/>
<feGaussianBlur stdDeviation="10"/>
<feColorMatrix type="matrix" values="0 0 0 0 0.588235 0 0 0 0 0.647059 0 0 0 0 0.729412 0 0 0 0.18 0"/>
<feBlend mode="normal" in2="BackgroundImageFix" result="effect1_dropShadow_0_474"/>
<feBlend mode="normal" in="SourceGraphic" in2="effect1_dropShadow_0_474" result="shape"/>
</filter>
<filter id="filter1_b_0_474" x="-11.1828" y="-13.1828" width="106.366" height="106.366" filterUnits="userSpaceOnUse" color-interpolation-filters="sRGB">
<feFlood flood-opacity="0" result="BackgroundImageFix"/>
<feGaussianBlur in="BackgroundImageFix" stdDeviation="13.5914"/>
<feComposite in2="SourceAlpha" operator="in" result="effect1_backgroundBlur_0_474"/>
<feBlend mode="normal" in="SourceGraphic" in2="effect1_backgroundBlur_0_474" result="shape"/>
</filter>
</defs>
</svg>
