<svg width="306" height="82" viewBox="0 0 306 82" fill="none" xmlns="http://www.w3.org/2000/svg">
<path fill-rule="evenodd" clip-rule="evenodd" d="M121.445 29.4906C123.401 29.4906 124.991 27.8547 124.991 25.8417C124.991 23.8288 123.401 22.1929 121.445 22.1929C119.489 22.1929 117.9 23.8288 117.9 25.8417C117.9 27.8547 119.489 29.4906 121.445 29.4906Z" fill="#0A6ADA"/>
<path fill-rule="evenodd" clip-rule="evenodd" d="M125.818 22.2788H133.273C135.885 22.2788 138 24.4559 138 27.1439V37.8988C138 38.6345 137.404 39.2308 136.668 39.2308H136.032C135.296 39.2308 134.7 38.6344 134.7 37.8988V34.4417H117.1V37.8988C117.1 38.6345 116.504 39.2308 115.768 39.2308H115.332C114.596 39.2308 114 38.6345 114 37.8988V21.028C114 20.3753 114.529 19.8462 115.182 19.8462C115.835 19.8462 116.364 20.3753 116.364 21.028V30.7928H125.818V22.2788ZM124.636 24.7874C124.636 26.8003 123.047 28.4363 121.091 28.4363C119.135 28.4363 117.545 26.8003 117.545 24.7874C117.545 22.7744 119.135 21.1385 121.091 21.1385C123.047 21.1385 124.636 22.7744 124.636 24.7874Z" fill="white"/>
<g clip-path="url(#clip0_0_144)">
<path d="M210.714 18.3494C210.306 17.9893 209.694 17.9893 209.286 18.3494L198.388 27.9606C198.157 28.1648 198.024 28.4584 198.023 28.7671L198.003 34.8002C198.001 35.398 198.486 35.8837 199.083 35.8837H206.008V34.4503C206.008 32.5102 207.796 30.9367 210 30.9367C212.204 30.9367 213.992 32.5102 213.992 34.4503V35.8837H220.916C221.514 35.8837 221.998 35.398 221.996 34.8002L221.977 28.7671C221.976 28.4584 221.843 28.1648 221.611 27.9606L210.714 18.3494Z" fill="#328CFF"/>
<path fill-rule="evenodd" clip-rule="evenodd" d="M209.286 17.2698C209.694 16.9097 210.306 16.9097 210.714 17.2698L221.611 26.8808C221.843 27.0851 221.976 27.3789 221.977 27.6878L221.997 34.9211C221.999 35.5187 221.515 36.0041 220.917 36.0041H213.992V33.3707C213.992 31.4306 212.204 29.8571 210 29.8571C207.796 29.8571 206.008 31.4306 206.008 33.3707V36.0041H199.083C198.485 36.0041 198.001 35.5187 198.003 34.9211L198.023 27.6878C198.024 27.3789 198.157 27.0851 198.389 26.8808L209.286 17.2698ZM199.296 38.156C198.58 38.156 198 38.7362 198 39.452V39.7115C198 40.4273 198.58 41.0075 199.296 41.0075H220.704C221.42 41.0075 222 40.4273 222 39.7115V39.452C222 38.7362 221.42 38.156 220.704 38.156H199.296Z" fill="white"/>
</g>
<g clip-path="url(#clip1_0_144)">
<path fill-rule="evenodd" clip-rule="evenodd" d="M286.205 22.6124L287.14 20.2585H301.783L302.718 22.6124H286.205Z" fill="#328CFF"/>
<path fill-rule="evenodd" clip-rule="evenodd" d="M300.949 19.4616C301.727 19.4616 302.388 19.9785 302.624 20.7046L305.077 28.0769V37.9231C305.077 38.6 304.546 39.1539 303.897 39.1539H302.718C302.069 39.1539 301.538 38.6 301.538 37.9231V36.6923H287.385V37.9231C287.385 38.6 286.854 39.1539 286.205 39.1539H285.026C284.377 39.1539 283.846 38.6 283.846 37.9231V28.0769L286.3 20.7046C286.547 19.9785 287.196 19.4616 287.974 19.4616H290.923C290.923 18.6119 291.612 17.9231 292.462 17.9231H296.462C297.311 17.9231 298 18.6119 298 19.4616H300.949ZM286.205 31.1539C286.205 32.1754 286.995 33 287.974 33C288.953 33 289.744 32.1754 289.744 31.1539C289.744 30.1323 288.953 29.3077 287.974 29.3077C286.995 29.3077 286.205 30.1323 286.205 31.1539ZM300.949 33C299.97 33 299.18 32.1754 299.18 31.1539C299.18 30.1323 299.97 29.3077 300.949 29.3077C301.928 29.3077 302.718 30.1323 302.718 31.1539C302.718 32.1754 301.928 33 300.949 33ZM287.974 21.3077L286.205 26.8462H302.718L300.949 21.3077H287.974Z" fill="white"/>
</g>
<g filter="url(#filter0_d_0_144)">
<rect x="18" y="6" width="46" height="46" rx="6" fill="#DAE1FB"/>
</g>
<g filter="url(#filter1_b_0_144)">
<rect x="18" y="6" width="46" height="46" rx="8" fill="black" fill-opacity="0.01"/>
</g>
<rect x="18" y="6" width="46" height="46" rx="6" fill="#0A6ADA"/>
<g clip-path="url(#clip2_0_144)">
<path d="M53.3604 26.7047C53.0972 25.5811 52.0567 24.9069 51.0538 25.2159L44.3971 27.2103L36.3324 18.7905C35.973 18.4152 35.4341 18.2721 34.9359 18.4196V18.4196C34.1011 18.6668 33.6972 19.6126 34.0961 20.3866L38.5177 28.9659L32.2872 30.8339L30.2685 29.0659C29.988 28.8202 29.6008 28.7363 29.2437 28.8439V28.8439C28.5966 29.0389 28.2848 29.773 28.5938 30.3741L30.2815 33.6569L31.2467 35.5249L33.2525 34.921L39.9092 32.9266L45.3624 31.2974L52.0191 29.303C53.0345 28.98 53.6237 27.8283 53.3604 26.7047Z" fill="#328CFF"/>
<path fill-rule="evenodd" clip-rule="evenodd" d="M51.6307 23.8171C52.6336 23.5081 53.6741 24.1822 53.9373 25.3058C54.2006 26.4294 53.6114 27.5811 52.596 27.9041L45.9393 29.8985L40.4861 31.5277L33.8294 33.5221L31.8236 34.126L30.8583 32.2581L29.1707 28.9753C28.8617 28.3742 29.1735 27.6401 29.8206 27.4451C30.1776 27.3375 30.5649 27.4213 30.8454 27.667L32.8641 29.435L39.0946 27.5671L34.673 18.9877C34.2741 18.2138 34.6779 17.2679 35.5128 17.0208C36.011 16.8733 36.5499 17.0164 36.9093 17.3916L44.974 25.8115L51.6307 23.8171ZM30.7762 37.2859C30.0604 37.2859 29.4802 37.8662 29.4802 38.5819V38.7989C29.4802 39.5147 30.0604 40.0949 30.7762 40.0949H51.8569C52.5727 40.0949 53.1529 39.5147 53.1529 38.7989V38.5819C53.1529 37.8662 52.5727 37.2859 51.8569 37.2859H30.7762Z" fill="white"/>
</g>
<defs>
<filter id="filter0_d_0_144" x="0" y="0" width="82" height="82" filterUnits="userSpaceOnUse" color-interpolation-filters="sRGB">
<feFlood flood-opacity="0" result="BackgroundImageFix"/>
<feColorMatrix in="SourceAlpha" type="matrix" values="0 0 0 0 0 0 0 0 0 0 0 0 0 0 0 0 0 0 127 0" result="hardAlpha"/>
<feOffset dy="12"/>
<feGaussianBlur stdDeviation="9"/>
<feColorMatrix type="matrix" values="0 0 0 0 0.0431373 0 0 0 0 0.356863 0 0 0 0 0.862745 0 0 0 0.1 0"/>
<feBlend mode="normal" in2="BackgroundImageFix" result="effect1_dropShadow_0_144"/>
<feBlend mode="normal" in="SourceGraphic" in2="effect1_dropShadow_0_144" result="shape"/>
</filter>
<filter id="filter1_b_0_144" x="-9.18282" y="-21.1828" width="100.366" height="100.366" filterUnits="userSpaceOnUse" color-interpolation-filters="sRGB">
<feFlood flood-opacity="0" result="BackgroundImageFix"/>
<feGaussianBlur in="BackgroundImageFix" stdDeviation="13.5914"/>
<feComposite in2="SourceAlpha" operator="in" result="effect1_backgroundBlur_0_144"/>
<feBlend mode="normal" in="SourceGraphic" in2="effect1_backgroundBlur_0_144" result="shape"/>
</filter>
<clipPath id="clip0_0_144">
<rect width="24" height="24" fill="white" transform="translate(198 17)"/>
</clipPath>
<clipPath id="clip1_0_144">
<rect width="24" height="24" fill="white" transform="translate(282 17)"/>
</clipPath>
<clipPath id="clip2_0_144">
<rect width="26" height="26" fill="white" transform="translate(28 16)"/>
</clipPath>
</defs>
</svg>
