<svg width="1080" height="401" viewBox="0 0 1080 401" fill="none" xmlns="http://www.w3.org/2000/svg">
<g filter="url(#filter0_bd_0_2817)">
<path fill-rule="evenodd" clip-rule="evenodd" d="M40 45.6C40 36.6392 40 32.1587 41.7439 28.7362C43.2779 25.7256 45.7256 23.2779 48.7362 21.7439C52.1587 20 56.6392 20 65.6 20H1014.4C1023.36 20 1027.84 20 1031.26 21.7439C1034.27 23.2779 1036.72 25.7256 1038.26 28.7362C1040 32.1587 1040 36.6392 1040 45.6V315.4C1040 324.361 1040 328.841 1038.26 332.264C1036.72 335.274 1034.27 337.722 1031.26 339.256C1027.84 341 1023.36 341 1014.4 341H65.6C56.6391 341 52.1587 341 48.7362 339.256C45.7256 337.722 43.2779 335.274 41.7439 332.264C40 328.841 40 324.361 40 315.4V45.6Z" fill="#F3F4F4"/>
</g>
<defs>
<filter id="filter0_bd_0_2817" x="-14.3656" y="-34.3656" width="1108.73" height="435.366" filterUnits="userSpaceOnUse" color-interpolation-filters="sRGB">
<feFlood flood-opacity="0" result="BackgroundImageFix"/>
<feGaussianBlur in="BackgroundImageFix" stdDeviation="27.1828"/>
<feComposite in2="SourceAlpha" operator="in" result="effect1_backgroundBlur_0_2817"/>
<feColorMatrix in="SourceAlpha" type="matrix" values="0 0 0 0 0 0 0 0 0 0 0 0 0 0 0 0 0 0 127 0" result="hardAlpha"/>
<feOffset dy="20"/>
<feGaussianBlur stdDeviation="20"/>
<feColorMatrix type="matrix" values="0 0 0 0 0 0 0 0 0 0 0 0 0 0 0 0 0 0 0.04 0"/>
<feBlend mode="normal" in2="effect1_backgroundBlur_0_2817" result="effect2_dropShadow_0_2817"/>
<feBlend mode="normal" in="SourceGraphic" in2="effect2_dropShadow_0_2817" result="shape"/>
</filter>
</defs>
</svg>
