<svg width="1362" height="165" viewBox="0 0 1362 165" fill="none" xmlns="http://www.w3.org/2000/svg">
<g filter="url(#filter0_bd_0_66)">
<path fill-rule="evenodd" clip-rule="evenodd" d="M40 45.6C40 36.6392 40 32.1587 41.7439 28.7362C43.2779 25.7256 45.7256 23.2779 48.7362 21.7439C52.1587 20 56.6392 20 65.6 20H1296.4C1305.36 20 1309.84 20 1313.26 21.7439C1316.27 23.2779 1318.72 25.7256 1320.26 28.7362C1322 32.1587 1322 36.6392 1322 45.6V79.4C1322 88.3608 1322 92.8413 1320.26 96.2638C1318.72 99.2744 1316.27 101.722 1313.26 103.256C1309.84 105 1305.36 105 1296.4 105H65.6C56.6392 105 52.1587 105 48.7362 103.256C45.7256 101.722 43.2779 99.2744 41.7439 96.2638C40 92.8413 40 88.3608 40 79.4V45.6Z" fill="#F3F4F4"/>
</g>
<defs>
<filter id="filter0_bd_0_66" x="-14.3656" y="-34.3656" width="1390.73" height="199.366" filterUnits="userSpaceOnUse" color-interpolation-filters="sRGB">
<feFlood flood-opacity="0" result="BackgroundImageFix"/>
<feGaussianBlur in="BackgroundImageFix" stdDeviation="27.1828"/>
<feComposite in2="SourceAlpha" operator="in" result="effect1_backgroundBlur_0_66"/>
<feColorMatrix in="SourceAlpha" type="matrix" values="0 0 0 0 0 0 0 0 0 0 0 0 0 0 0 0 0 0 127 0" result="hardAlpha"/>
<feOffset dy="20"/>
<feGaussianBlur stdDeviation="20"/>
<feColorMatrix type="matrix" values="0 0 0 0 0 0 0 0 0 0 0 0 0 0 0 0 0 0 0.04 0"/>
<feBlend mode="normal" in2="effect1_backgroundBlur_0_66" result="effect2_dropShadow_0_66"/>
<feBlend mode="normal" in="SourceGraphic" in2="effect2_dropShadow_0_66" result="shape"/>
</filter>
</defs>
</svg>
