<svg width="53" height="50" viewBox="0 0 53 50" fill="none" xmlns="http://www.w3.org/2000/svg">
<path d="M0.10022 12.68C0.10022 6.07435 5.45518 0.719391 12.0609 0.719391H40.4674C47.073 0.719391 52.428 6.07435 52.428 12.68V37.6382C52.428 44.2438 47.073 49.5988 40.4674 49.5988H12.0609C5.45518 49.5988 0.10022 44.2438 0.10022 37.6382V12.68Z" fill="#4DABFF"/>
<path d="M34.4162 18.4844C34.1805 17.8412 33.5208 17.3833 32.7433 17.3833H29.7981V16.2931C29.7981 15.6935 29.268 15.203 28.6201 15.203H23.9078C23.2599 15.203 22.7297 15.6935 22.7297 16.2931V17.3833H19.7846C19.007 17.3833 18.3591 17.8412 18.1117 18.4844L15.7909 24.6656C15.7085 24.8945 15.6613 25.1343 15.6613 25.3851V33.1906C15.6613 34.0955 16.4506 34.8259 17.4284 34.8259C18.4062 34.8259 19.1955 34.0955 19.1955 33.1906V32.6456H33.3323V33.1906C33.3323 34.0846 34.1216 34.8259 35.0994 34.8259C36.0654 34.8259 36.8665 34.0955 36.8665 33.1906V25.3851C36.8665 25.1452 36.8194 24.8945 36.7369 24.6656L34.4162 18.4844ZM19.7846 29.3751C18.8068 29.3751 18.0175 28.6447 18.0175 27.7398C18.0175 26.835 18.8068 26.1046 19.7846 26.1046C20.7624 26.1046 21.5517 26.835 21.5517 27.7398C21.5517 28.6447 20.7624 29.3751 19.7846 29.3751ZM32.7433 29.3751C31.7655 29.3751 30.9762 28.6447 30.9762 27.7398C30.9762 26.835 31.7655 26.1046 32.7433 26.1046C33.7211 26.1046 34.5104 26.835 34.5104 27.7398C34.5104 28.6447 33.7211 29.3751 32.7433 29.3751ZM18.0175 23.9243L19.7846 19.0185H32.7433L34.5104 23.9243H18.0175Z" fill="white"/>
</svg>
