<svg width="50" height="50" viewBox="0 0 50 50" fill="none" xmlns="http://www.w3.org/2000/svg">
<path d="M0.521271 12.68C0.521271 6.07435 5.87623 0.719391 12.4819 0.719391H37.44C44.0457 0.719391 49.4007 6.07435 49.4007 12.68V37.6382C49.4007 44.2438 44.0457 49.5988 37.44 49.5988H12.4819C5.87623 49.5988 0.521271 44.2438 0.521271 37.6382V12.68Z" fill="#FF9B53"/>
<path d="M29.1515 14.207C28.6589 13.7194 27.9911 13.4454 27.2947 13.4454C26.5984 13.4454 25.9305 13.7194 25.438 14.207L13.9053 25.6332C13.6614 25.8748 13.4679 26.1617 13.3359 26.4774C13.2039 26.7931 13.136 27.1315 13.136 27.4732C13.136 27.8149 13.2039 28.1533 13.3359 28.469C13.4679 28.7847 13.6614 29.0715 13.9053 29.3132L15.2735 30.6674C15.8689 31.2584 16.7059 31.1531 17.2114 30.8548C17.4902 30.6908 17.8162 30.6234 18.138 30.6634C18.4598 30.7034 18.7589 30.8484 18.9882 31.0756C19.2175 31.3027 19.3639 31.5991 19.4043 31.9179C19.4446 32.2366 19.3767 32.5596 19.2111 32.8358C18.9111 33.3366 18.8037 34.1658 19.4002 34.7556L20.7696 36.111C21.0135 36.3527 21.303 36.5443 21.6217 36.6751C21.9404 36.8059 22.282 36.8732 22.6269 36.8732C22.9718 36.8732 23.3134 36.8059 23.6321 36.6751C23.9508 36.5443 24.2403 36.3527 24.4842 36.111L36.0157 24.6872C36.2596 24.4456 36.4531 24.1587 36.5851 23.843C36.7171 23.5273 36.785 23.1889 36.785 22.8472C36.785 22.5055 36.7171 22.1671 36.5851 21.8514C36.4531 21.5357 36.2596 21.2488 36.0157 21.0072L34.6487 19.6518C34.0533 19.062 33.2151 19.1661 32.7097 19.4645C32.4308 19.6285 32.1048 19.6958 31.783 19.6558C31.4613 19.6158 31.1621 19.4708 30.9328 19.2436C30.7035 19.0165 30.5571 18.7201 30.5167 18.4014C30.4764 18.0826 30.5444 17.7596 30.7099 17.4834C31.0111 16.9826 31.1173 16.1534 30.5208 15.5636L29.1526 14.207H29.1515Z" fill="white"/>
</svg>
