<svg width="50" height="50" viewBox="0 0 50 50" fill="none" xmlns="http://www.w3.org/2000/svg">
<path d="M0.153145 12.68C0.153145 6.07435 5.5081 0.719391 12.1138 0.719391H37.0719C43.6776 0.719391 49.0325 6.07435 49.0325 12.68V37.6382C49.0325 44.2438 43.6776 49.5988 37.0719 49.5988H12.1138C5.5081 49.5988 0.153145 44.2438 0.153145 37.6382V12.68Z" fill="#FDBF00"/>
<path d="M14.5316 31.1194C14.5316 32.2158 15.0221 33.2001 15.7892 33.8853V35.4801C15.7892 36.5142 16.6319 37.3489 17.6757 37.3489C18.7195 37.3489 19.5621 36.5142 19.5621 35.4801V34.8571H29.6232V35.4801C29.6232 36.5017 30.4658 37.3489 31.5097 37.3489C32.5409 37.3489 33.3961 36.5142 33.3961 35.4801V33.8853C34.1633 33.2001 34.6538 32.2158 34.6538 31.1194V18.6605C34.6538 14.2998 30.1514 13.6769 24.5927 13.6769C19.0339 13.6769 14.5316 14.2998 14.5316 18.6605V31.1194ZM18.9333 32.3653C17.8895 32.3653 17.0469 31.5306 17.0469 30.4965C17.0469 29.4624 17.8895 28.6277 18.9333 28.6277C19.9772 28.6277 20.8198 29.4624 20.8198 30.4965C20.8198 31.5306 19.9772 32.3653 18.9333 32.3653ZM30.252 32.3653C29.2082 32.3653 28.3656 31.5306 28.3656 30.4965C28.3656 29.4624 29.2082 28.6277 30.252 28.6277C31.2959 28.6277 32.1385 29.4624 32.1385 30.4965C32.1385 31.5306 31.2959 32.3653 30.252 32.3653ZM32.1385 24.89H17.0469V18.6605H32.1385V24.89Z" fill="white"/>
</svg>
