<svg width="50" height="50" viewBox="0 0 50 50" fill="none" xmlns="http://www.w3.org/2000/svg">
<rect x="0.836487" y="0.561676" width="48.8794" height="48.8794" rx="11.9606" fill="#F9668D"/>
<path d="M24.4208 21.6094H26.1328V20.7614C26.1328 20.5365 26.223 20.3208 26.3835 20.1618C26.5441 20.0028 26.7618 19.9134 26.9888 19.9134H29.5569C29.7839 19.9134 30.0016 20.0028 30.1622 20.1618C30.3227 20.3208 30.4129 20.5365 30.4129 20.7614V21.6094H33.837V18.2175C33.837 17.3179 33.4762 16.4551 32.8341 15.819C32.192 15.1829 31.321 14.8255 30.4129 14.8255H20.1407C19.2326 14.8255 18.3616 15.1829 17.7195 15.819C17.0774 16.4551 16.7166 17.3179 16.7166 18.2175V21.6094H20.1407V20.7614C20.1407 20.5365 20.2309 20.3208 20.3914 20.1618C20.5519 20.0028 20.7697 19.9134 20.9967 19.9134H23.5648C23.7918 19.9134 24.0095 20.0028 24.1701 20.1618C24.3306 20.3208 24.4208 20.5365 24.4208 20.7614V21.6094Z" fill="white"/>
<path d="M17.5728 23.3055C16.4377 23.3055 15.349 23.7522 14.5464 24.5473C13.7438 25.3425 13.2928 26.4209 13.2928 27.5454V34.3293C13.2928 34.5542 13.383 34.7699 13.5436 34.929C13.7041 35.088 13.9218 35.1773 14.1488 35.1773C14.3758 35.1773 14.5936 35.088 14.7541 34.929C14.9146 34.7699 15.0048 34.5542 15.0048 34.3293V30.0894H35.5484V34.3293C35.5484 34.5542 35.6386 34.7699 35.7991 34.929C35.9596 35.088 36.1773 35.1773 36.4044 35.1773C36.6314 35.1773 36.8491 35.088 37.0096 34.929C37.1702 34.7699 37.2603 34.5542 37.2603 34.3293V27.5454C37.2603 26.4209 36.8094 25.3425 36.0068 24.5473C35.2041 23.7522 34.1155 23.3055 32.9804 23.3055H17.5728Z" fill="white"/>
</svg>
