<svg width="89" height="19" viewBox="0 0 89 19" fill="none" xmlns="http://www.w3.org/2000/svg">
<line x1="4.24261" y1="9.25733" x2="81.6517" y2="9.25734" stroke="#CCCCCC" stroke-width="0.74754" stroke-dasharray="2.24 2.24"/>
<path d="M43.5485 16.6718H42.5277C42.4252 16.6717 42.3243 16.6482 42.2342 16.6033C42.1442 16.5585 42.0679 16.4937 42.0123 16.4149C41.9567 16.3361 41.9237 16.2459 41.9161 16.1524C41.9086 16.0589 41.9268 15.9652 41.9691 15.8799L44.4407 10.8953L40.7294 10.8199L39.3759 12.3186C39.1178 12.6151 38.9119 12.7472 38.3866 12.7472H37.6995C37.5907 12.7504 37.4826 12.7296 37.3845 12.6865C37.2864 12.6435 37.2011 12.5794 37.1358 12.4998C37.0445 12.3873 36.9548 12.1967 37.0422 11.9248L37.8022 9.43688C37.808 9.41831 37.8149 9.39974 37.8225 9.38152C37.8229 9.37978 37.8229 9.37799 37.8225 9.37626C37.8146 9.35805 37.8078 9.33945 37.8022 9.32055L37.0415 6.81687C36.959 6.55021 37.0491 6.36379 37.1396 6.25411C37.2004 6.18043 37.2792 6.1208 37.3698 6.08003C37.4604 6.03925 37.5602 6.01847 37.6611 6.01934H38.3866C38.7788 6.01934 39.1596 6.18018 39.3835 6.43983L40.7091 7.9133L44.4407 7.86284L41.9698 2.88703C41.9275 2.80169 41.9092 2.70801 41.9167 2.61454C41.9241 2.52108 41.9571 2.43082 42.0126 2.35201C42.0681 2.27321 42.1443 2.20837 42.2343 2.16343C42.3243 2.11849 42.4252 2.09488 42.5277 2.09476H43.5596C43.7035 2.0974 43.845 2.12964 43.9734 2.18909C44.1019 2.24854 44.214 2.33367 44.3015 2.43816L49.0965 7.76438L51.3116 7.71112C51.4738 7.70306 51.9232 7.70025 52.0271 7.70025C54.146 7.7013 55.4113 8.32994 55.4113 9.38327C55.4113 9.71476 55.2664 10.3294 54.2967 10.7204C53.7242 10.9517 52.9604 11.0687 52.0263 11.0687C51.9236 11.0687 51.4753 11.0659 51.3108 11.0579L49.0961 11.0039L44.2893 16.3301C44.2017 16.4342 44.0896 16.5189 43.9614 16.578C43.8332 16.6371 43.6921 16.6692 43.5485 16.6718Z" fill="#1262AE"/>
<circle cx="4.43612" cy="9.63111" r="2.99016" fill="white" stroke="#1262AE" stroke-width="1.49508"/>
<circle cx="84.685" cy="9.31938" r="2.99016" fill="white" stroke="#1262AE" stroke-width="1.49508"/>
</svg>
