<svg width="50" height="50" viewBox="0 0 50 50" fill="none" xmlns="http://www.w3.org/2000/svg">
<rect x="0.206055" y="0.719391" width="48.8794" height="48.8794" rx="11.9606" fill="#36DA76"/>
<path d="M30.9757 34.6862C30.9347 33.8091 30.8804 32.9365 30.8369 32.0659C30.6962 29.3425 30.7077 26.5792 30.5606 23.8423C30.4134 21.1259 30.5007 18.4077 30.423 15.6914C30.4074 15.1268 30.4326 14.0119 29.8485 13.6901C28.5919 12.9987 27.8459 14.8845 27.5262 15.6522C26.9499 17.0457 26.617 18.5114 26.2053 19.9551C25.8545 21.1908 25.455 22.4226 25.3196 23.7021C25.2193 24.6621 25.2285 25.7369 25.73 26.6019C25.9819 27.0367 26.4174 27.3326 26.9132 27.4576C27.4278 27.5893 28.0163 27.4169 28.5046 27.6493C28.6305 27.7101 28.7414 27.8365 28.7919 27.9642C28.9502 28.3755 28.8004 28.9996 28.751 29.4239C28.5942 30.791 28.4285 32.1716 28.3543 33.5452C28.3104 34.3759 28.2618 35.4398 28.7643 36.1635C29.0724 36.603 29.6966 37.0134 30.2599 36.795C31.1017 36.4728 31.0107 35.3843 30.9757 34.6862Z" fill="white"/>
<path d="M20.2661 14.2965C20.0241 14.3935 20.1159 15.2584 20.1051 15.5242C20.0892 16.0016 20.1218 16.6334 20.0643 17.2522C20.064 17.2577 20.0631 17.2616 20.0623 17.2654C20.0574 17.3084 20.0533 17.3548 20.0462 17.4038C20.0387 17.4511 20.0307 17.4967 20.0249 17.5435C19.9733 17.8452 19.8751 18.2025 19.6896 18.3738C19.4789 18.5697 19.0068 18.5285 18.8428 18.297C18.5746 17.9202 18.5947 17.0789 18.5784 17.0541C18.5675 16.6561 18.5095 15.4523 18.4225 14.6587C18.4153 14.5989 18.4037 14.2392 18.0753 14.2007C17.9221 14.1841 17.761 14.3146 17.7087 14.553C17.5545 15.2566 17.41 16.598 17.4009 16.8089C17.3991 16.8293 17.3982 16.8531 17.3981 16.8731C17.3981 16.8731 17.3973 16.8769 17.3977 16.8786C17.3967 16.9224 17.3446 17.9733 17.0786 18.3358C16.9397 18.5259 16.5788 18.6754 16.2202 18.4742C16.0774 18.3933 15.9795 18.2372 15.9105 18.0701C15.5355 16.9029 15.8721 15.6171 15.92 15.0044C15.9342 14.8321 16.0903 14.2567 15.7421 14.276C15.2179 14.3044 14.541 16.5379 14.42 17.0497C14.1232 18.3234 14.0782 19.6844 14.5944 20.913C14.8812 21.5933 15.442 22.1503 16.1375 22.4203C16.4449 22.5385 16.7865 22.6243 17.1481 22.6741C17.018 25.5697 16.8703 28.5912 16.7357 30.2728C16.6322 31.5382 16.51 32.8176 16.5265 34.0883C16.5362 34.8475 16.5282 35.7527 17.0265 36.3893C17.5478 37.0544 18.6474 36.7484 18.9443 35.9626C19.2773 35.0767 19.1805 34.0444 19.0671 32.4179C18.9532 30.7896 18.825 28.5684 18.7544 27.3734C18.651 25.6137 18.615 24.076 18.605 22.673C19.531 22.5407 20.3946 22.1434 20.8779 21.4128C21.0899 21.0932 21.2295 20.7361 21.3249 20.3687C21.4711 19.8122 21.5424 19.2025 21.5109 18.6285C21.4787 18.1 21.0444 13.9847 20.2661 14.2965Z" fill="white"/>
</svg>
